<svg xmlns="http://www.w3.org/2000/svg" xmlns:xlink="http://www.w3.org/1999/xlink" viewBox="0 0 49.24 49.24"><defs><style>.cls-1{fill:url(#linear-gradient);}.cls-2{fill:url(#linear-gradient-2);}.cls-3{fill:url(#linear-gradient-3);}.cls-4{fill:url(#linear-gradient-4);}.cls-5{fill:url(#linear-gradient-5);}.cls-6{fill:url(#linear-gradient-6);}.cls-7{fill:url(#linear-gradient-7);}.cls-8{fill:url(#linear-gradient-8);}.cls-9{fill:url(#linear-gradient-9);}.cls-10{fill:url(#linear-gradient-10);}.cls-11{fill:url(#linear-gradient-11);}.cls-12{fill:url(#linear-gradient-12);}</style><linearGradient id="linear-gradient" x1="24.62" y1="-16378.44" x2="24.62" y2="-16240.47" gradientTransform="matrix(0.38, 0.93, 0.93, -0.38, 15159.72, -6155.57)" gradientUnits="userSpaceOnUse"><stop offset="0" stop-color="#e1e6ea"/><stop offset="0.34" stop-color="#dee4e7"/><stop offset="0.6" stop-color="#d4dddd"/><stop offset="0.84" stop-color="#c5d1cc"/><stop offset="1" stop-color="#b6c6bd"/></linearGradient><linearGradient id="linear-gradient-2" x1="13.26" y1="8.3" x2="36.93" y2="42.3" gradientUnits="userSpaceOnUse"><stop offset="0" stop-color="#5fe3ff"/><stop offset="1" stop-color="#b15fff"/></linearGradient><linearGradient id="linear-gradient-3" x1="27.05" y1="-1.29" x2="50.72" y2="32.71" xlink:href="#linear-gradient-2"/><linearGradient id="linear-gradient-4" x1="25.97" y1="-0.54" x2="49.64" y2="33.46" xlink:href="#linear-gradient-2"/><linearGradient id="linear-gradient-5" x1="24.89" y1="0.21" x2="48.56" y2="34.21" xlink:href="#linear-gradient-2"/><linearGradient id="linear-gradient-6" x1="1.65" y1="16.39" x2="25.31" y2="50.39" xlink:href="#linear-gradient-2"/><linearGradient id="linear-gradient-7" x1="0.57" y1="17.14" x2="24.23" y2="51.14" xlink:href="#linear-gradient-2"/><linearGradient id="linear-gradient-8" x1="-0.51" y1="17.89" x2="23.15" y2="51.89" xlink:href="#linear-gradient-2"/><linearGradient id="linear-gradient-9" x1="11.09" y1="9.82" x2="34.76" y2="43.82" xlink:href="#linear-gradient-2"/><linearGradient id="linear-gradient-10" x1="15.44" y1="6.79" x2="39.1" y2="40.79" xlink:href="#linear-gradient-2"/><linearGradient id="linear-gradient-11" x1="13.26" y1="8.31" x2="36.93" y2="42.31" xlink:href="#linear-gradient-2"/><linearGradient id="linear-gradient-12" x1="20.01" y1="3.61" x2="43.68" y2="37.61" xlink:href="#linear-gradient-2"/></defs><title>app_icon@2x</title><g id="Layer_2" data-name="Layer 2"><g id="Layer_1-2" data-name="Layer 1"><circle class="cls-1" cx="24.62" cy="24.62" r="24.62" transform="translate(-7.46 38.15) rotate(-67.87)"/><path class="cls-2" d="M14.91,26.91h.48V23.5a8.34,8.34,0,0,1-.87-.16,3.28,3.28,0,0,1-2.47-2.59,3.32,3.32,0,0,1,1.21-3.44,1.59,1.59,0,0,1,.27-.18.54.54,0,0,1,.74.15.52.52,0,0,1-.06.74,3.73,3.73,0,0,1-.3.26,2.29,2.29,0,0,0-.66,2.51,2.27,2.27,0,0,0,2.16,1.51V10.45a2.89,2.89,0,0,1,3.1-3.1H30.74a2.89,2.89,0,0,1,3.09,3.11V21.17h.82c.47,0,.64.14.74.6s.15.7.23,1.05a.4.4,0,0,0,.13.24c.36.16.72.32,1.09.46.07,0,.18-.05.26-.09l1-.62a.6.6,0,0,1,.84.09l1.27,1.27a.59.59,0,0,1,.09.78c-.22.34-.44.66-.63,1a.92.92,0,0,0,0,.41c0,.05,0,.09.06.13.14.81.7,1,1.43,1.15s.79.23.79,1v1.44a.61.61,0,0,1-.57.7c-.36.09-.72.16-1.08.26a.7.7,0,0,0-.29.25c-.08.12-.08.29-.16.4-.34.47-.19.84.11,1.27.66,1,.64,1-.17,1.78l-.69.69c-.44.45-.6.47-1.14.12l0,0c-1-.63-1-.64-2-.15a.45.45,0,0,0-.2.25c-.1.38-.16.75-.25,1.13s-.36.59-.68.53-.52-.35-.44-.77a14.43,14.43,0,0,1,.36-1.61.9.9,0,0,1,.45-.49c.49-.25,1-.43,1.51-.65a.67.67,0,0,1,.71,0c.27.17.55.33.81.53a.32.32,0,0,0,.49-.06,5.47,5.47,0,0,1,.51-.45c-.26-.4-.46-.74-.69-1.06a.74.74,0,0,1,0-.81c.22-.46.41-.94.59-1.42a.68.68,0,0,1,.57-.52c.4-.08.79-.18,1.19-.27v-1c-.37-.08-.75-.18-1.14-.25a.78.78,0,0,1-.64-.59,10.65,10.65,0,0,0-.56-1.35.74.74,0,0,1,0-.81c.18-.26.33-.53.51-.78s.11-.32-.06-.49c-.49-.47-.48-.48-1.06-.11a1.25,1.25,0,0,0-.12.08,1.06,1.06,0,0,1-1.46.08,3.83,3.83,0,0,0-1.07-.41.71.71,0,0,1-.55-.59c-.07-.38-.17-.77-.26-1.17h-.48v3.41c.19,0,.38,0,.57.08A3.45,3.45,0,0,1,35.91,32a.71.71,0,0,1-.51.19.86.86,0,0,1-.5-.38c-.14-.25,0-.49.23-.65a2.4,2.4,0,0,0,1-1.54A2.28,2.28,0,0,0,33.83,27V38.77a2.9,2.9,0,0,1-3.12,3.12H18.51a2.9,2.9,0,0,1-3.1-3.1V28.07h-.88a.59.59,0,0,1-.66-.52c-.08-.38-.16-.75-.25-1.12,0-.08,0-.2-.09-.22-.38-.18-.77-.34-1.16-.49,0,0-.15.05-.22.09l-1,.62a.6.6,0,0,1-.84-.08L9.07,25.08A.59.59,0,0,1,9,24.26a2.39,2.39,0,0,0,.13-.21c.2-.32.54-.64.56-1A2.4,2.4,0,0,0,9.28,22,.47.47,0,0,0,9,21.81c-.39-.1-.77-.18-1.16-.26a.61.61,0,0,1-.52-.67c0-.58,0-1.15,0-1.73a.6.6,0,0,1,.52-.66L9,18.23a1.72,1.72,0,0,0,.61-1.49c-.19-.32-.39-.63-.6-.94A.6.6,0,0,1,9.08,15l1.26-1.28a.58.58,0,0,1,.81-.09c.34.21.66.44,1,.63a.55.55,0,0,0,.38,0c.14,0,.26-.15.39-.17a.93.93,0,0,0,.81-1,4.37,4.37,0,0,1,.15-.7.56.56,0,0,1,.64-.44.55.55,0,0,1,.47.65,18.61,18.61,0,0,1-.4,1.83.91.91,0,0,1-.45.41c-.48.23-1,.41-1.48.63a.7.7,0,0,1-.74,0c-.28-.18-.56-.37-.85-.53a.42.42,0,0,0-.36,0,6.13,6.13,0,0,0-.58.48c.25.39.45.72.66,1a.78.78,0,0,1,0,.9,10.28,10.28,0,0,0-.54,1.33.76.76,0,0,1-.61.57c-.39.08-.77.18-1.17.27v1c.39.09.79.2,1.2.28a.71.71,0,0,1,.56.53c.18.48.38,1,.6,1.42a.71.71,0,0,1,0,.78,6.72,6.72,0,0,0-.53.85.39.39,0,0,0,0,.35c.5.57.5.57,1.14.16l.27-.17a.88.88,0,0,1,1.15,0,4.8,4.8,0,0,0,1.12.46.8.8,0,0,1,.66.7C14.74,26.19,14.83,26.55,14.91,26.91Zm17.77-2.29V10.42a1.74,1.74,0,0,0-1.93-1.91H18.49a1.75,1.75,0,0,0-1.93,1.94V38.79a1.76,1.76,0,0,0,2,2H30.71a1.76,1.76,0,0,0,2-2Z"/><path class="cls-3" d="M36.7,12a.58.58,0,0,1,.58.56.65.65,0,0,1-.59.65.55.55,0,0,1-.56-.57A.58.58,0,0,1,36.7,12Z"/><path class="cls-4" d="M36.13,14.89a.58.58,0,1,1,1.15-.05.63.63,0,0,1-.61.63A.54.54,0,0,1,36.13,14.89Z"/><path class="cls-5" d="M36.13,17.19a.58.58,0,0,1,.59-.62.57.57,0,0,1,.56.57.63.63,0,0,1-.61.63A.54.54,0,0,1,36.13,17.19Z"/><path class="cls-6" d="M12,32a.58.58,0,1,1,1.15,0,.61.61,0,0,1-.63.6A.52.52,0,0,1,12,32Z"/><path class="cls-7" d="M12,34.33a.59.59,0,0,1,.6-.61.58.58,0,0,1,.55.59.61.61,0,0,1-.62.6A.52.52,0,0,1,12,34.33Z"/><path class="cls-8" d="M12,36.63a.58.58,0,1,1,1.15,0,.62.62,0,0,1-.62.61A.53.53,0,0,1,12,36.63Z"/><path class="cls-9" d="M20.23,24.64c.21.19.4.36.57.53.41.4.82.81,1.22,1.22s.39.67.12.94-.59.22-.93-.13c-.69-.68-1.38-1.37-2.06-2.06-.39-.39-.39-.65,0-1l2-2c.37-.37.69-.42,1-.16s.23.6-.14,1Z"/><path class="cls-10" d="M29,24.62l-1.72-1.71a1.58,1.58,0,0,1-.22-.23.53.53,0,0,1,0-.75.52.52,0,0,1,.77,0c.8.77,1.59,1.56,2.37,2.36a.51.51,0,0,1,0,.75c-.77.79-1.55,1.57-2.34,2.33a.55.55,0,0,1-.81,0,.57.57,0,0,1,.05-.84C27.73,25.87,28.35,25.27,29,24.62Z"/><path class="cls-11" d="M25.77,22.38c-.06.24-.13.54-.21.84l-.93,3.72c-.11.42-.38.62-.71.54s-.51-.39-.4-.82c.37-1.47.73-2.94,1.1-4.41a.58.58,0,0,1,.64-.5A.61.61,0,0,1,25.77,22.38Z"/><path class="cls-12" d="M24.64,10.81H23c-.42,0-.68-.24-.67-.59A.58.58,0,0,1,23,9.66h3.27c.42,0,.68.24.67.59a.59.59,0,0,1-.66.56Z"/></g></g></svg>