<svg xmlns="http://www.w3.org/2000/svg" viewBox="0 0 78 78"><defs><style>.cls-1{fill:#068ff1;}</style></defs><title>asset_mangae@2x</title><g id="Layer_2" data-name="Layer 2"><g id="Layer_1-2" data-name="Layer 1"><path class="cls-1" d="M78,15.08V62c-1.4,3.37-2.53,4.12-6.22,4.12H47.46l.86,9.54a.68.68,0,0,1,.28,0c1.24,0,2.49,0,3.73,0,.76,0,1.35.49,1.24,1.12A3.91,3.91,0,0,1,52.86,78H25.14c-.46-.41-.93-.81-.66-1.53s.85-.78,1.49-.77c1.17,0,2.33,0,3.7,0l.87-9.59H21.66c-1.2,0-1.71-.33-1.73-1.11s.52-1.17,1.75-1.17H73a2.71,2.71,0,0,0,2.71-2.71c0-1.15,0-2.29,0-3.43V56.35H2.29c0,1.48,0,2.92,0,4.36q0,3.12,3.14,3.13c3.33,0,6.65,0,10,0,.82,0,1.33.45,1.34,1.13s-.5,1.15-1.32,1.15c-3.53,0-7,0-10.58,0A4.94,4.94,0,0,1,.29,62.77C.2,62.51.1,62.26,0,62V15.08a.78.78,0,0,0,.11-.2,5,5,0,0,1,5.36-4h33l0-.21c-.42-.4-.85-.79-1.25-1.2a2,2,0,0,1,0-3.07c.76-.78,1.54-1.55,2.32-2.31a2,2,0,0,1,3,0,4.1,4.1,0,0,1,.58.6,1.2,1.2,0,0,0,2,.34,2.7,2.7,0,0,1,.62-.29c1.54-.61,1.57-.61,1.53-2.23A2.32,2.32,0,0,1,48.75,0h4.57c2.08.82,1.34,2.68,1.54,4.21a5.72,5.72,0,0,1,1.35.51c1.38,1,2.37.62,3.39-.65a1.81,1.81,0,0,1,2.87,0c.82.79,1.62,1.6,2.42,2.42a1.92,1.92,0,0,1,0,3c-.43.45-.86.89-1.44,1.47h9.25A4.91,4.91,0,0,1,77,13,14.09,14.09,0,0,1,78,15.08ZM54.82,31.71c0,.62,0,1.28,0,1.93a2,2,0,0,1-2.17,2.18H49.83c-1.95,0-2.58-.63-2.58-2.6,0-1.55-.09-1.4-1.39-2.14-1.46-.83-2.39-.58-3.4.69a1.81,1.81,0,0,1-2.87,0c-.8-.77-1.59-1.57-2.37-2.37a1.92,1.92,0,0,1,0-3c.5-.5,1.07-.92,1.6-1.38a4.45,4.45,0,0,1-.73-1.35c-.31-1.69-1.24-2.26-2.95-2.05-1.19.15-1.92-.69-2-1.9,0-.42,0-.84,0-1.31H8.19C7.1,18.43,7,18.49,7,19.61V54H71V20.1c0-1.77-.08-1.84-1.87-1.63,0,0,0,0-.15.09,0,.29,0,.64,0,1a1.93,1.93,0,0,1-2.13,2.13c-.53,0-1.07,0-1.6,0a.86.86,0,0,0-.59.4c-.41.92-.76,1.88-1.19,2.95.45.43,1,.92,1.51,1.45a1.88,1.88,0,0,1,0,2.79c-.84.88-1.7,1.75-2.58,2.58a1.86,1.86,0,0,1-2.73,0c-.43-.39-.81-.85-1.26-1.21a.89.89,0,0,0-.75-.15C56.73,30.85,55.84,31.27,54.82,31.71ZM66.61,16.44H64.52A2,2,0,0,1,62.59,15c-.41-1.06-.85-2.11-1.31-3.15a2,2,0,0,1,.37-2.44c.47-.48,1-.95,1.41-1.37L60.89,5.83c-.4.45-.81.93-1.26,1.38A2,2,0,0,1,57,7.6a25.44,25.44,0,0,0-2.8-1.17,2,2,0,0,1-1.62-2.17V2.34h-2.9a.53.53,0,0,0-.07.18c0,.6,0,1.21,0,1.82a2,2,0,0,1-1.47,2.05C47,6.78,46,7.21,45,7.67a2,2,0,0,1-2.49-.41c-.47-.46-.89-1-1.31-1.42L39,8c.49.48,1,.95,1.46,1.44a2,2,0,0,1,.37,2.44c-.46,1-.9,2-1.29,3.07a2,2,0,0,1-2,1.51h-2v3h2A2,2,0,0,1,39.52,21c.36,1,.77,2,1.22,2.94a2,2,0,0,1-.41,2.61A17.68,17.68,0,0,1,39,27.67L41.16,30c.44-.46.88-.95,1.35-1.41A2,2,0,0,1,45,28.18c1,.46,2,.88,3.08,1.27a2,2,0,0,1,1.45,2c0,.68,0,1.36,0,2h3c0-.72,0-1.38,0-2a2,2,0,0,1,1.45-2c1-.39,2.07-.81,3.08-1.27a2,2,0,0,1,2.5.38c.48.47.93,1,1.29,1.35l2.22-2.07c-.46-.45-.91-.89-1.35-1.34a2,2,0,0,1-.4-2.62A27.54,27.54,0,0,0,62.52,21a2.06,2.06,0,0,1,2.19-1.61h1.9ZM4.76,54V19.43q0-3.29,3.27-3.29H33c.52-1.68.94-2,2.66-2a6.91,6.91,0,0,1,.91,0c.75.1,1-.28.95-1l-.57,0H5.37c-2,0-3.08,1.08-3.08,3.12q0,18.47,0,36.94c0,.24,0,.49,0,.76ZM46,75.68c-.28-3.21-.56-6.36-.84-9.51H32.83L32,75.68ZM75.71,54V16.38c0-2.18-1-3.21-3.22-3.21H65.25l-.75,0c0,.75.31,1.06,1,1a3.84,3.84,0,0,1,1.22,0,3.26,3.26,0,0,1,1.46.46,5.77,5.77,0,0,1,1,1.51c.31,0,.74,0,1.17,0a3.68,3.68,0,0,1,.82.1,2.91,2.91,0,0,1,2.08,3.16V54Z"/><path class="cls-1" d="M39.06,61.22c-.83,0-1.67,0-2.5,0A1.17,1.17,0,0,1,35.26,60a1.14,1.14,0,0,1,1.28-1.1h4.94a1.14,1.14,0,0,1,1.26,1.13,1.16,1.16,0,0,1-1.25,1.15C40.68,61.24,39.87,61.22,39.06,61.22Z"/><path class="cls-1" d="M26.51,26.59c.18.08.33.12.46.19,1.1.67,2,.76,3-.42a1.47,1.47,0,0,1,2.19,0c.75.68,1.47,1.4,2.16,2.15a1.61,1.61,0,0,1-.13,2.44,1.62,1.62,0,0,0-.49,2.29,1.28,1.28,0,0,0,1.42.93c1.63,0,2.24.6,2.25,2.24,0,.71,0,1.42,0,2.13a1.72,1.72,0,0,1-1.93,1.93,1.54,1.54,0,0,0-1.85,1.22c-.25.75-.27,1.18.34,1.73,1.19,1.1,1.17,2,0,3.11-.54.54-1.07,1.09-1.62,1.61a1.63,1.63,0,0,1-2.55,0,1.62,1.62,0,0,0-2.42-.42,6.36,6.36,0,0,1-.82.33c0,.47,0,1,0,1.43a1.75,1.75,0,0,1-1.75,1.83c-.93,0-1.88,0-2.81,0a1.73,1.73,0,0,1-1.74-1.76,3,3,0,0,1,0-.6c.11-.69-.12-1.12-.84-1.23l-.08,0c-.89-.63-1.56-.46-2.28.39a1.66,1.66,0,0,1-2.66,0c-.6-.58-1.19-1.17-1.77-1.78a1.74,1.74,0,0,1,0-2.63c.31-.33.67-.61,1-.91-.28-.72-.5-1.36-.8-2a.75.75,0,0,0-.59-.29c-2.14.16-3-.56-2.79-3,0-.53,0-1.06,0-1.59.07-1.1.72-1.86,1.78-1.76a1.65,1.65,0,0,0,2.06-1.47,2.82,2.82,0,0,1,.45-.85,12,12,0,0,1-1.17-1,1.71,1.71,0,0,1,0-2.51c.61-.64,1.24-1.27,1.89-1.88a1.64,1.64,0,0,1,2.55,0,1.65,1.65,0,0,0,2.36.49c.65-.35.93-.61.9-1.37-.05-1.71.56-2.29,2.26-2.29h2.05a1.8,1.8,0,0,1,2,2ZM11.7,38.2h1.11a1.82,1.82,0,0,1,2,1.48c.26.74.59,1.45.91,2.16A1.69,1.69,0,0,1,15.42,44a8.84,8.84,0,0,1-1.1.8l.28.17,1.25,1.3a5.74,5.74,0,0,1,.58-.79,1.83,1.83,0,0,1,2.64-.42,19.81,19.81,0,0,0,2,.8,1.81,1.81,0,0,1,1.44,1.89c0,.4,0,.8,0,1.23h1.83c-.62-2.18.68-2.82,2.39-3.56s3.11-1.05,4.2.75l1.29-1.35c-.21-.18-.48-.38-.71-.61a1.85,1.85,0,0,1-.41-2.59,15.64,15.64,0,0,0,.78-1.89,1.82,1.82,0,0,1,2-1.53H35V36.44H33.9a1.84,1.84,0,0,1-2-1.53A16.82,16.82,0,0,0,31,33a1.79,1.79,0,0,1,.39-2.46,5.54,5.54,0,0,1,1-.62l-.27-.22-1.17-1.3c-.34.39-.61.76-.94,1.07a1.73,1.73,0,0,1-2,.33c-.83-.37-1.67-.71-2.52-1.05A1.75,1.75,0,0,1,24.22,27c0-.42,0-.85,0-1.31H22.47c0,.49,0,.94,0,1.39a1.79,1.79,0,0,1-1.29,1.7c-.81.3-1.6.63-2.38,1a1.74,1.74,0,0,1-2.16-.36,8.61,8.61,0,0,1-.73-.93l-1.46,1.38a12.27,12.27,0,0,1,1,.88,1.74,1.74,0,0,1,.29,2c-.38.83-.7,1.68-1,2.52a1.68,1.68,0,0,1-1.61,1.18H11.7Z"/><path class="cls-1" d="M42.18,18.26a8.93,8.93,0,0,1,1.36-5.06c.45-.72,1.05-.92,1.65-.58s.72,1,.28,1.79a6.59,6.59,0,1,0,6.53-3,11.11,11.11,0,0,0-2.57.12c-.88.12-1.47-.13-1.61-.83s.24-1.21,1.12-1.43a8.86,8.86,0,1,1,3.28,17.39A8.79,8.79,0,0,1,42.18,18.26Z"/><path class="cls-1" d="M46.44,17.85A4.6,4.6,0,1,1,51,22.53,4.61,4.61,0,0,1,46.44,17.85Zm6.9.09A2.31,2.31,0,1,0,51,20.25,2.33,2.33,0,0,0,53.34,17.94Z"/><path class="cls-1" d="M17.31,37.33a6,6,0,1,1,6.05,6.05A6.06,6.06,0,0,1,17.31,37.33Zm2.29-.12a3.75,3.75,0,0,0,3.66,3.87,3.77,3.77,0,1,0,.13-7.53A3.76,3.76,0,0,0,19.6,37.21Z"/></g></g></svg>