<svg xmlns="http://www.w3.org/2000/svg" xmlns:xlink="http://www.w3.org/1999/xlink" viewBox="0 0 49.24 49.24"><defs><style>.cls-1{fill:url(#linear-gradient);}.cls-2{fill:url(#linear-gradient-2);}.cls-3{fill:url(#linear-gradient-3);}.cls-4{fill:url(#linear-gradient-4);}</style><linearGradient id="linear-gradient" x1="24.62" y1="-16378.44" x2="24.62" y2="-16240.47" gradientTransform="matrix(0.38, 0.93, 0.93, -0.38, 15159.72, -6155.57)" gradientUnits="userSpaceOnUse"><stop offset="0" stop-color="#e1e6ea"/><stop offset="0.34" stop-color="#dee4e7"/><stop offset="0.6" stop-color="#d4dddd"/><stop offset="0.84" stop-color="#c5d1cc"/><stop offset="1" stop-color="#b6c6bd"/></linearGradient><linearGradient id="linear-gradient-2" x1="14.18" y1="9.02" x2="39.18" y2="38.52" gradientUnits="userSpaceOnUse"><stop offset="0" stop-color="#5fe3ff"/><stop offset="1" stop-color="#b15fff"/></linearGradient><linearGradient id="linear-gradient-3" x1="7.26" y1="14.88" x2="32.26" y2="44.38" xlink:href="#linear-gradient-2"/><linearGradient id="linear-gradient-4" x1="8.61" y1="13.74" x2="33.61" y2="43.24" xlink:href="#linear-gradient-2"/></defs><title>asset_rec_icon@2x</title><g id="Layer_2" data-name="Layer 2"><g id="Layer_1-2" data-name="Layer 1"><circle class="cls-1" cx="24.62" cy="24.62" r="24.62" transform="translate(-7.46 38.15) rotate(-67.87)"/><path class="cls-2" d="M25.54,7a21.23,21.23,0,0,1,2.25.42,12.39,12.39,0,0,1,9.31,10,12.11,12.11,0,0,1-1.58,8.8,1.74,1.74,0,0,1-.11.18.53.53,0,0,1-.72.19.54.54,0,0,1-.16-.73c.3-.58.64-1.14.89-1.74a11.65,11.65,0,1,0-22.33-6A11.39,11.39,0,0,0,14.26,25c0,.09.1.17.17.31l.15-.3c.25-.66.51-1.32.77-2,.14-.38.41-.52.71-.4s.39.4.24.78c-.34.9-.68,1.8-1,2.69a1.21,1.21,0,0,1-1.46.8L11,26.33c-.4-.08-.6-.31-.54-.62s.31-.47.71-.4c.65.11,1.31.25,2,.37l.3.05c-.26-.66-.56-1.28-.78-1.92A12.68,12.68,0,0,1,22.46,7.18L23.75,7Z"/><path class="cls-3" d="M28.49,41.37c-3.61.67-7.09.67-10.44-1.15,0,.18,0,.33,0,.49A1.33,1.33,0,0,1,16.7,42H11.46a1.31,1.31,0,0,1-1.33-1.23A3.07,3.07,0,0,1,10.34,39s0-.16,0-.24a3.15,3.15,0,0,1,0-2.28.44.44,0,0,0,0-.3,3.13,3.13,0,0,1-.07-2.09,1.28,1.28,0,0,1,1.31-.86c1,0,2,0,3,0H15a10.59,10.59,0,0,1,2.5-5.11l.18-.21a.51.51,0,0,1,.71-.05.48.48,0,0,1,.08.7c-.28.38-.59.74-.86,1.12A8.73,8.73,0,0,0,16.06,33a2.23,2.23,0,0,0,0,.23h.61a1.34,1.34,0,0,1,1.41,1.41,2.72,2.72,0,0,1-.22,1.61.25.25,0,0,0,0,.19,3.77,3.77,0,0,1,.09,2.35,7.24,7.24,0,0,0,3,1.5,15.48,15.48,0,0,0,7.13.08.4.4,0,0,0,.38-.48c0-.95,0-1.9,0-2.86a1.48,1.48,0,0,1-1.19-1.44,1.36,1.36,0,0,1,.64-1.26c1.37-.87,2.76-1.72,4.15-2.58a5.33,5.33,0,0,1,.73-.31c-.36-.6-.69-1.2-1.08-1.76a19.39,19.39,0,0,0-4.1-4.14.45.45,0,0,0-.27-.1c-1.67,0-3.33.06-5,0a1.33,1.33,0,0,0-1,.34c-.38.35-.78.68-1.17,1a.54.54,0,0,1-.82,0,.52.52,0,0,1,.13-.78l1.41-1.21c-.7-1.46-.55-2.15.66-3-.42-.51-.83-1-1.27-1.53a2,2,0,0,1-.51-2.14,2.07,2.07,0,0,1,1.84-1.25,4.47,4.47,0,0,1,3.57,1l.22.17a1.14,1.14,0,0,0,1.4.12,3,3,0,0,1,1.82-.37,1.39,1.39,0,0,1,1.25.94,1.34,1.34,0,0,1-.31,1.49c-.55.56-1.11,1.1-1.67,1.66a2,2,0,0,1,.55,3c.62.55,1.25,1.08,1.84,1.65A14.23,14.23,0,0,1,33.61,31a1.37,1.37,0,0,0,.77.83,5.71,5.71,0,0,1,1,.59.51.51,0,1,1-.54.87c-.29-.16-.57-.35-.85-.52a1.34,1.34,0,0,0-1.5,0l-3.91,2.44a.46.46,0,0,0-.2.67.48.48,0,0,0,.7.08c1.1-.68,2.2-1.36,3.29-2.06a1.43,1.43,0,0,1,1.7,0c1.06.68,2.14,1.34,3.21,2a1,1,0,0,0,.34.16c.23,0,.45,0,.48-.26a.65.65,0,0,0-.16-.53,8.2,8.2,0,0,0-.93-.6c-.35-.22-.44-.49-.28-.77s.47-.32.84-.1.56.36.85.53a1.46,1.46,0,0,1,.76,1.44,1.42,1.42,0,0,1-1,1.28l-.17.07v3.79a1.24,1.24,0,0,1-1.42,1.41c-2.18,0-4.36,0-6.54,0A1.37,1.37,0,0,1,28.49,41.37Zm4.68-.15h3.3c.32,0,.45-.07.45-.42,0-1.23,0-2.45,0-3.68a.45.45,0,0,0-.25-.44q-1.61-1-3.18-2a.47.47,0,0,0-.57,0l-3.23,2a.52.52,0,0,0-.21.38c0,1.24,0,2.48,0,3.72,0,.32.12.41.43.4ZM24.7,21.66c.57,0,1.14,0,1.72,0a.52.52,0,0,0,.33-.11c.68-.66,1.34-1.32,2-2a.56.56,0,0,0,.13-.45.56.56,0,0,0-.39-.27,1.93,1.93,0,0,0-1.28.28,2.1,2.1,0,0,1-2.36-.18l-.38-.3A3.45,3.45,0,0,0,21.38,18a.84.84,0,0,0-.47,1.45c.55.67,1.1,1.35,1.67,2a.63.63,0,0,0,.43.19C23.57,21.68,24.13,21.66,24.7,21.66Zm-.06,1H22.47a.89.89,0,1,0,0,1.76h4.36a.89.89,0,1,0,0-1.76ZM14.09,35.84c.82,0,1.65,0,2.47,0,.32,0,.47-.13.46-.45s0-.46,0-.69-.14-.43-.44-.43H11.63c-.37,0-.47.1-.48.47v.62c0,.38.1.47.5.47Zm0,3.6c-.83,0-1.67,0-2.51,0-.3,0-.45.13-.44.43v.72a.36.36,0,0,0,.4.41h5.09a.33.33,0,0,0,.38-.38V39.9c0-.37-.09-.45-.48-.46Zm0-2.57H11.59c-.31,0-.45.12-.44.42V38a.35.35,0,0,0,.4.4h5c.32,0,.47-.12.45-.45s0-.43,0-.65-.12-.45-.45-.45C15.75,36.88,14.92,36.87,14.1,36.87Z"/><path class="cls-4" d="M24.73,37c-.34-.06-.63-.27-.58-.55.09-.64-.2-.91-.76-1.08a2.24,2.24,0,0,1-.72-.52.51.51,0,1,1,.7-.74,1.86,1.86,0,0,0,1.47.56,1.37,1.37,0,0,0,.49-.13.63.63,0,0,0,0-1.2c-.34-.18-.71-.3-1.07-.45l-.58-.23a1.43,1.43,0,0,1-1-1.37,1.54,1.54,0,0,1,1-1.5.5.5,0,0,0,.38-.61,1.12,1.12,0,0,1,0-.41.46.46,0,0,1,.49-.4.47.47,0,0,1,.49.39.19.19,0,0,1,0,.07c-.16.66.22.92.78,1.07a1.42,1.42,0,0,1,.44.26.52.52,0,0,1,.19.74.54.54,0,0,1-.76.12,2.91,2.91,0,0,0-.81-.36,1.68,1.68,0,0,0-.86.1.72.72,0,0,0-.33.54c0,.12.18.33.33.4.46.21.94.37,1.4.57a1.84,1.84,0,0,1,1.24,1.32,1.71,1.71,0,0,1-1.26,2,.43.43,0,0,0-.36.54.67.67,0,0,1,0,.4A3.06,3.06,0,0,1,24.73,37Z"/></g></g></svg>