<svg xmlns="http://www.w3.org/2000/svg" xmlns:xlink="http://www.w3.org/1999/xlink" viewBox="0 0 49.24 49.24"><defs><style>.cls-1{fill:url(#linear-gradient);}.cls-2{fill:url(#linear-gradient-2);}.cls-3{fill:url(#linear-gradient-3);}.cls-4{fill:url(#linear-gradient-4);}.cls-5{fill:url(#linear-gradient-5);}.cls-6{fill:url(#linear-gradient-6);}.cls-7{fill:url(#linear-gradient-7);}.cls-8{fill:url(#linear-gradient-8);}.cls-9{fill:url(#linear-gradient-9);}</style><linearGradient id="linear-gradient" x1="35.58" y1="-5.57" x2="35.58" y2="132.4" gradientTransform="matrix(-0.92, -0.4, -0.4, 0.92, 67.08, 16.31)" gradientUnits="userSpaceOnUse"><stop offset="0" stop-color="#e1e6ea"/><stop offset="0.34" stop-color="#dee4e7"/><stop offset="0.6" stop-color="#d4dddd"/><stop offset="0.84" stop-color="#c5d1cc"/><stop offset="1" stop-color="#b6c6bd"/></linearGradient><linearGradient id="linear-gradient-2" x1="37.34" y1="39.48" x2="13.01" y2="11.82" gradientUnits="userSpaceOnUse"><stop offset="0" stop-color="#bdf7a3"/><stop offset="1" stop-color="#009ee0"/></linearGradient><linearGradient id="linear-gradient-3" x1="42.46" y1="34.99" x2="18.12" y2="7.32" xlink:href="#linear-gradient-2"/><linearGradient id="linear-gradient-4" x1="38.24" y1="38.69" x2="13.91" y2="11.03" xlink:href="#linear-gradient-2"/><linearGradient id="linear-gradient-5" x1="40.35" y1="36.84" x2="16.02" y2="9.17" xlink:href="#linear-gradient-2"/><linearGradient id="linear-gradient-6" x1="35.8" y1="40.84" x2="11.46" y2="13.18" xlink:href="#linear-gradient-2"/><linearGradient id="linear-gradient-7" x1="39.69" y1="37.42" x2="15.35" y2="9.75" xlink:href="#linear-gradient-2"/><linearGradient id="linear-gradient-8" x1="45.18" y1="32.59" x2="20.85" y2="4.93" xlink:href="#linear-gradient-2"/><linearGradient id="linear-gradient-9" x1="35.8" y1="40.84" x2="11.46" y2="13.18" xlink:href="#linear-gradient-2"/></defs><title>audit_icon@2x</title><g id="Layer_2" data-name="Layer 2"><g id="Layer_1-2" data-name="Layer 1"><circle class="cls-1" cx="24.62" cy="24.62" r="24.62" transform="translate(-7.8 11.92) rotate(-23.61)"/><path class="cls-2" d="M40.76,34.52c0,.23-.1.45-.16.67a4.3,4.3,0,0,1-4.24,3.16H16a3.11,3.11,0,0,1-.53,0,.85.85,0,0,0-.89.33c-.4.45-.84.86-1.27,1.28a1.69,1.69,0,0,1-2.52,0L9.39,38.52a1.7,1.7,0,0,1,0-2.5c.59-.6,1.19-1.2,1.79-1.78a.73.73,0,0,0,.24-.57q0-9.71,0-19.41A4.31,4.31,0,0,1,14.58,10a4.82,4.82,0,0,1,1.2-.16H34.6a.44.44,0,0,1,.43.47.43.43,0,0,1-.42.45,1.61,1.61,0,0,1-.31,0H15.85a3.37,3.37,0,0,0-3.41,2.67,3.57,3.57,0,0,0-.09.8V32.79c0,.06,0,.12,0,.24.32-.31.61-.58.88-.88.06-.06,0-.21,0-.32V18.36a2.45,2.45,0,0,1,1.85-2.49,3.12,3.12,0,0,1,.8-.09H36.25a2.48,2.48,0,0,1,2.64,2.66c0,5.11,0,10.22,0,15.33a2.6,2.6,0,0,1-2.71,2.73c-6.31,0-12.61,0-18.92,0a.92.92,0,0,0-.78.32,5.64,5.64,0,0,1-.56.53l.05.07.32,0H36.24a3.39,3.39,0,0,0,3.58-3.58c0-6.47,0-12.94,0-19.41a3.48,3.48,0,0,0-3.37-3.65.48.48,0,0,1-.49-.49.49.49,0,0,1,.54-.45,4.35,4.35,0,0,1,4.17,3.57c0,.08.05.16.07.24ZM14.22,31.64a2.19,2.19,0,0,0,.86.06c.25-.1.42-.39.63-.59,0-.05.12-.09.15-.16a.46.46,0,0,0,0-.28c-.09-.21-.23-.4-.31-.61a.41.41,0,0,1,.21-.56.43.43,0,0,1,.58.13,1.69,1.69,0,0,1,.19.32,7.43,7.43,0,1,0-.77-2c.08.39,0,.63-.33.69s-.49-.11-.58-.5a8,8,0,0,1-.12-2.88,8.35,8.35,0,1,1,6.79,9.31,8.54,8.54,0,0,1-3-1.18l-.85.87a.42.42,0,0,0-.05.17v1.15H36.26A1.53,1.53,0,0,0,38,33.85q0-7.71,0-15.43a1.55,1.55,0,0,0-1.72-1.71H16a1.56,1.56,0,0,0-1.73,1.74V31.64Zm-2.13,8a3,3,0,0,0,.56-.33c1.3-1.27,2.58-2.56,3.86-3.85a.74.74,0,0,0,0-1.13q-.72-.75-1.47-1.47a.75.75,0,0,0-1.15,0c-1.28,1.28-2.56,2.55-3.83,3.83a.75.75,0,0,0,0,1.16c.48.5,1,1,1.48,1.47A2.86,2.86,0,0,0,12.09,39.64Zm3.8-7.36L17,33.43l.64-.57-1.18-1.21Z"/><path class="cls-3" d="M23.35,15a1.68,1.68,0,0,1,0-3.36,1.68,1.68,0,1,1,0,3.36Zm0-.94a.74.74,0,1,0,0-1.48.74.74,0,0,0,0,1.48Z"/><path class="cls-4" d="M15.9,15a1.68,1.68,0,1,1,1.67-1.7A1.69,1.69,0,0,1,15.9,15Zm0-.94a.74.74,0,1,0-.74-.75A.74.74,0,0,0,15.89,14Z"/><path class="cls-5" d="M19.62,15a1.68,1.68,0,1,1,1.69-1.67A1.69,1.69,0,0,1,19.62,15Zm0-.94a.74.74,0,1,0-.73-.73A.75.75,0,0,0,19.62,14Z"/><path class="cls-6" d="M29.06,26.33a6,6,0,1,1-6-6A6,6,0,0,1,29.06,26.33Zm-1,0a5.94,5.94,0,0,0-10,0A6,6,0,0,0,28,26.33Zm-.28,1.8a6.9,6.9,0,0,1-9.48,0,5.08,5.08,0,0,0,4.9,3.3A5,5,0,0,0,27.76,28.13Zm0-3.61a5.06,5.06,0,0,0-5.22-3.27c-1.84.12-4,1.8-4.23,3.25a6.93,6.93,0,0,1,9.45,0Z"/><path class="cls-7" d="M34.05,29.13a6,6,0,0,1,.49-.55,1.38,1.38,0,0,1,2,1.94A7.29,7.29,0,0,1,36,31c.18.16.34.28.47.42a1.38,1.38,0,1,1-2,1.94c-.13-.13-.24-.28-.42-.48a5.14,5.14,0,0,1-.44.52,1.37,1.37,0,0,1-1.94,0,1.39,1.39,0,0,1,0-2c.14-.14.3-.26.5-.43-.21-.19-.38-.32-.53-.48a1.38,1.38,0,0,1,1.93-2C33.72,28.72,33.85,28.9,34.05,29.13ZM36,32.46a3.36,3.36,0,0,0-.25-.41c-.21-.22-.44-.43-.66-.66a.48.48,0,0,1,0-.76c.22-.23.46-.45.68-.69a.45.45,0,1,0-.64-.62l-.66.66a.5.5,0,0,1-.81,0c-.22-.22-.43-.44-.66-.66a.45.45,0,1,0-.62.64c.21.22.42.43.64.64s.31.53,0,.85l-.64.64a.45.45,0,1,0,.64.62l.66-.65a.49.49,0,0,1,.81,0,6.23,6.23,0,0,0,.69.67.63.63,0,0,0,.5.09C35.78,32.78,35.86,32.59,36,32.46Z"/><path class="cls-8" d="M33.69,20.3l1.09-1.92a1.41,1.41,0,0,1,1.32-.77,1.44,1.44,0,0,1,1.23,2.16c-.49.91-1,1.81-1.52,2.71-.22.38-.42.76-.65,1.13a1.45,1.45,0,0,1-2.45.19q-.83-1-1.62-2.1a1.46,1.46,0,1,1,2.31-1.78ZM36.62,19a1.68,1.68,0,0,0-.2-.35.51.51,0,0,0-.83.16l-1.37,2.41c-.26.45-.6.47-.92.06l-.6-.76c-.25-.32-.54-.38-.8-.17a.54.54,0,0,0,0,.8l1.53,2a.54.54,0,0,0,1-.07l2.07-3.66C36.52,19.31,36.56,19.18,36.62,19Z"/><path class="cls-9" d="M23,24.05a2.28,2.28,0,1,1-2.29,2.26A2.27,2.27,0,0,1,23,24.05Zm1.33,2.28A1.35,1.35,0,1,0,23,27.67,1.34,1.34,0,0,0,24.37,26.33Z"/></g></g></svg>