<svg xmlns="http://www.w3.org/2000/svg" xmlns:xlink="http://www.w3.org/1999/xlink" viewBox="0 0 49.24 49.24"><defs><style>.cls-1{fill:url(#linear-gradient);}.cls-2{fill:url(#linear-gradient-2);}.cls-3{fill:url(#linear-gradient-3);}</style><linearGradient id="linear-gradient" x1="24.62" y1="-16378.44" x2="24.62" y2="-16240.47" gradientTransform="matrix(0.58, 0.82, 0.82, -0.58, 13347.91, -9449.34)" gradientUnits="userSpaceOnUse"><stop offset="0" stop-color="#e1e6ea"/><stop offset="0.34" stop-color="#dee4e7"/><stop offset="0.6" stop-color="#d4dddd"/><stop offset="0.84" stop-color="#c5d1cc"/><stop offset="1" stop-color="#b6c6bd"/></linearGradient><linearGradient id="linear-gradient-2" x1="37.47" y1="42.2" x2="12.22" y2="14.7" gradientUnits="userSpaceOnUse"><stop offset="0" stop-color="#933fff"/><stop offset="0.69" stop-color="#dd3fa1"/><stop offset="1" stop-color="#ff3f75"/></linearGradient><linearGradient id="linear-gradient-3" x1="47.7" y1="32.81" x2="22.45" y2="5.31" xlink:href="#linear-gradient-2"/></defs><title>cloud_icon@2x</title><g id="Layer_2" data-name="Layer 2"><g id="Layer_1-2" data-name="Layer 1"><circle class="cls-1" cx="24.62" cy="24.62" r="24.62" transform="matrix(0.58, -0.82, 0.82, 0.58, -9.7, 30.47)"/><path class="cls-2" d="M26.26,8.49h1a1.68,1.68,0,0,0,.24.06,7.45,7.45,0,0,1,6.42,5.21c.22.72.3,1.47.46,2.25l.31,0a6.42,6.42,0,0,1,5.83,4.77c.09.34.15.69.22,1v1.26a.78.78,0,0,0,0,.14,6.34,6.34,0,0,1-2.83,4.59,1.14,1.14,0,0,0-.17.15l.22.16a6.93,6.93,0,0,1,2.62,4c.1.4.14.82.21,1.23v.76c0,.23-.08.47-.11.71A7,7,0,0,1,27,35.58c-.11-.41-.18-.84-.27-1.28a2.8,2.8,0,0,1-2.12-1.06,2.76,2.76,0,0,1-2.11,1.07A7,7,0,0,1,9.2,36.79a6.81,6.81,0,0,1-.58-4.26A7,7,0,0,1,11.55,28l-.31-.22A6.34,6.34,0,0,1,8.5,22.85a6.42,6.42,0,0,1,6.85-6.8.44.44,0,0,0,.46-.22,5.19,5.19,0,0,1,3.64-2.41.45.45,0,0,0,.39-.32,7.41,7.41,0,0,1,4.88-4.3A15.54,15.54,0,0,1,26.26,8.49ZM25.17,27.82l.17,0c1.52,0,3,0,4.57,0a.79.79,0,0,0,.32-.1,6.88,6.88,0,0,1,6.09-.48.58.58,0,0,0,.43,0,5.37,5.37,0,1,0-5.3-9.34c-.4.25-.69.22-.88-.07s-.1-.62.33-.84,1.16-.51,1.75-.75c.18-.07.38-.1.56-.15a6.44,6.44,0,0,0-5.49-6.45,6.36,6.36,0,0,0-6.78,3.7s0,0,0,0a1.25,1.25,0,0,0,.19,0,5.32,5.32,0,0,1,2.32,1,.54.54,0,1,1-.61.88l-.13-.09a4.3,4.3,0,0,0-6,1.09l.31.12c.45.22.91.43,1.35.67a.53.53,0,0,1,.24.77.54.54,0,0,1-.8.15l-.11-.06a5.28,5.28,0,0,0-3.95-.72,5.36,5.36,0,0,0-1.36,10,.67.67,0,0,0,.46,0,6.94,6.94,0,0,1,6,.45,1.09,1.09,0,0,0,.5.13c1.43,0,2.86,0,4.28,0h.34v-.36c0-1,0-2,0-3.06a.41.41,0,0,0-.34-.48A2.67,2.67,0,0,1,22,20.86a2.69,2.69,0,0,1,5.29.1,2.67,2.67,0,0,1-1.81,3,.36.36,0,0,0-.31.41c0,1,0,2.1,0,3.15C25.16,27.6,25.17,27.71,25.17,27.82ZM13.39,35.18a3.28,3.28,0,0,1-.19-4.78,3.23,3.23,0,0,1,4.4-.14,3.08,3.08,0,0,1,1.08,2.07,3.23,3.23,0,0,1-1.14,2.85,4.82,4.82,0,0,1,2.57,2.21,5.9,5.9,0,1,0-9.26,0A4.92,4.92,0,0,1,13.39,35.18Zm22.45,0a4.77,4.77,0,0,1,2.55,2.19,5.9,5.9,0,1,0-9.26,0,4.75,4.75,0,0,1,2.55-2.2,3.24,3.24,0,1,1,4.16,0ZM11.65,38.24a5.88,5.88,0,0,0,7.5.16.25.25,0,0,0,.08-.34,3.57,3.57,0,0,0-1.69-1.72,5,5,0,0,0-3-.36A3.62,3.62,0,0,0,11.65,38.24Zm25.94,0a3.58,3.58,0,0,0-2.06-2A5.12,5.12,0,0,0,32.9,36,3.59,3.59,0,0,0,30,38a.25.25,0,0,0,.06.37A5.9,5.9,0,0,0,37.59,38.24Zm-22.11-7.7a2.15,2.15,0,1,0,2.15,2.14A2.14,2.14,0,0,0,15.48,30.54Zm18.28,0a2.15,2.15,0,1,0,2.14,2.14A2.14,2.14,0,0,0,33.76,30.54Zm-8.58-1.61c0,1,0,2,0,3a1.45,1.45,0,0,0,1.5,1.3,19.83,19.83,0,0,1,.7-2.26,18.18,18.18,0,0,1,1.19-2Zm-4.63,0a7.12,7.12,0,0,1,1.92,4.26,1.51,1.51,0,0,0,1.58-1.38c.05-.93,0-1.86,0-2.79,0,0,0-.05-.05-.09ZM24.61,23a1.61,1.61,0,1,0,0-3.22A1.64,1.64,0,0,0,23,21.41,1.61,1.61,0,0,0,24.61,23Z"/><path class="cls-3" d="M27,10.64a5.37,5.37,0,0,1,3.74,1.78c.29.31.29.62,0,.85s-.55.18-.83-.12a4.27,4.27,0,0,0-3.08-1.43c-.43,0-.65-.22-.64-.56S26.5,10.63,27,10.64Z"/></g></g></svg>