<svg xmlns="http://www.w3.org/2000/svg" xmlns:xlink="http://www.w3.org/1999/xlink" viewBox="0 0 49.24 49.24"><defs><style>.cls-1{fill:url(#linear-gradient);}.cls-2{fill:url(#linear-gradient-2);}.cls-3{fill:url(#linear-gradient-3);}.cls-4{fill:url(#linear-gradient-4);}.cls-5{fill:url(#linear-gradient-5);}.cls-6{fill:url(#linear-gradient-6);}.cls-7{fill:url(#linear-gradient-7);}.cls-8{fill:url(#linear-gradient-8);}.cls-9{fill:url(#linear-gradient-9);}.cls-10{fill:url(#linear-gradient-10);}</style><linearGradient id="linear-gradient" x1="35.58" y1="-5.57" x2="35.58" y2="132.4" gradientTransform="matrix(-0.92, -0.4, -0.4, 0.92, 67.08, 16.31)" gradientUnits="userSpaceOnUse"><stop offset="0" stop-color="#e1e6ea"/><stop offset="0.34" stop-color="#dee4e7"/><stop offset="0.6" stop-color="#d4dddd"/><stop offset="0.84" stop-color="#c5d1cc"/><stop offset="1" stop-color="#b6c6bd"/></linearGradient><linearGradient id="linear-gradient-2" x1="33.52" y1="40.97" x2="8.27" y2="13.97" gradientUnits="userSpaceOnUse"><stop offset="0" stop-color="#3e33f2"/><stop offset="1" stop-color="#00d7e0"/></linearGradient><linearGradient id="linear-gradient-3" x1="34.38" y1="40.16" x2="9.13" y2="13.16" xlink:href="#linear-gradient-2"/><linearGradient id="linear-gradient-4" x1="31.22" y1="43.11" x2="5.97" y2="16.11" xlink:href="#linear-gradient-2"/><linearGradient id="linear-gradient-5" x1="35.93" y1="38.71" x2="10.68" y2="11.71" xlink:href="#linear-gradient-2"/><linearGradient id="linear-gradient-6" x1="32.79" y1="41.65" x2="7.54" y2="14.65" xlink:href="#linear-gradient-2"/><linearGradient id="linear-gradient-7" x1="36.39" y1="38.28" x2="11.14" y2="11.28" xlink:href="#linear-gradient-2"/><linearGradient id="linear-gradient-8" x1="38.43" y1="36.38" x2="13.18" y2="9.38" xlink:href="#linear-gradient-2"/><linearGradient id="linear-gradient-9" x1="38.89" y1="35.95" x2="13.64" y2="8.95" xlink:href="#linear-gradient-2"/><linearGradient id="linear-gradient-10" x1="37.53" y1="37.22" x2="12.28" y2="10.22" xlink:href="#linear-gradient-2"/></defs><title>in_out_icon@2x</title><g id="Layer_2" data-name="Layer 2"><g id="Layer_1-2" data-name="Layer 1"><circle class="cls-1" cx="24.62" cy="24.62" r="24.62" transform="translate(-7.8 11.92) rotate(-23.61)"/><path class="cls-2" d="M11.34,13.67v-1.6c0-.52.19-.71.72-.71H15v-.95c0-.4.22-.63.56-.64s.57.23.58.65v.83a.62.62,0,0,0,0,.11h3.06c.52,0,.71.19.71.71s0,1,0,1.6h.85c1.14,0,1.16,0,1.16,1.18v1.6h.76V14.9c0-.52.19-.71.71-.72h1.14c0-.22,0-.42,0-.62a.54.54,0,0,1,.55-.6.56.56,0,0,1,.58.61v.61h1c.62,0,.79.17.79.8v1.49h.69a.57.57,0,0,1,.59.55c0,.11,0,.21,0,.32q0,3.29,0,6.56v.37c.61-.17,1.19-.36,1.79-.48a7.9,7.9,0,1,1-5.28,12,.49.49,0,0,0-.48-.26H10.19a2.08,2.08,0,0,1-.35,0,.55.55,0,0,1-.5-.55,2.26,2.26,0,0,1,0-.26V14.5c0-.68.16-.83.82-.83Zm9.47,20.7V14.83H10.49V34.36h2.29V30.52c0-.53.19-.72.73-.72,1.42,0,2.85,0,4.27,0,.54,0,.73.19.73.72,0,1.17,0,2.34,0,3.51v.34Zm4.42-2.81A6.78,6.78,0,1,0,32,24.78,6.77,6.77,0,0,0,25.23,31.56ZM22,17.63V34.37h2.61c-.11-.43-.23-.85-.33-1.27-.06-.23,0-.57-.16-.68s-.49-.06-.74-.07a.57.57,0,0,1-.62-.54.58.58,0,0,1,.63-.57h.71l.24-1.69h-.95a.58.58,0,0,1-.63-.57.56.56,0,0,1,.62-.54h1.18c.09,0,.21,0,.24-.09.25-.44.49-.89.75-1.38H23.39a.59.59,0,0,1-.65-.56c0-.34.26-.56.67-.56.76,0,1.53,0,2.29,0a1.6,1.6,0,0,0,1.45-.5.83.83,0,0,1,.3-.23c.21-.1.24-.26.24-.47v-7ZM18.81,12.5H12.48v1.15h6.33ZM17.36,34.37V31H16.17v3.42Zm-3.43,0H15V31H13.93Zm12.46-19H23.87v1.11h2.52Z"/><path class="cls-3" d="M15.62,20.74H12.4a.74.74,0,0,1-.4-.07.83.83,0,0,1-.3-.5.86.86,0,0,1,.3-.5.72.72,0,0,1,.4-.07h6.65a.56.56,0,0,1,.57.57.55.55,0,0,1-.56.56c-.41,0-.81,0-1.21,0Z"/><path class="cls-4" d="M15.68,25.9H19a.54.54,0,0,1,.58.41.5.5,0,0,1-.25.62A.76.76,0,0,1,19,27H12.34c-.42,0-.67-.23-.67-.57s.25-.56.67-.56Z"/><path class="cls-5" d="M15.66,17.59H12.48a2,2,0,0,1-.35,0,.56.56,0,0,1,0-1.1h7a.54.54,0,0,1,.48.54.52.52,0,0,1-.46.56c-.26,0-.53,0-.8,0Z"/><path class="cls-6" d="M15.64,23.87H12.27a.54.54,0,0,1-.57-.37.52.52,0,0,1,.2-.63.7.7,0,0,1,.38-.11q3.36,0,6.72,0a.55.55,0,0,1,.62.56c0,.34-.24.55-.64.55Z"/><path class="cls-7" d="M34.43,33l-.74-.79a.63.63,0,1,1,.91-.86c.56.59,1.12,1.19,1.67,1.8a.62.62,0,0,1,0,1c-.56.61-1.13,1.21-1.7,1.82a.63.63,0,1,1-.89-.87l.64-.71.05-.07-.35,0h-5.8c-.43,0-.72-.28-.7-.65a.64.64,0,0,1,.72-.61h6.18Z"/><path class="cls-8" d="M29.59,28.89h6a2,2,0,0,1,.35,0,.61.61,0,0,1,0,1.22H29.59c.29.31.52.55.74.8a.63.63,0,1,1-.92.85q-.82-.87-1.65-1.77a.65.65,0,0,1,0-1c.55-.6,1.11-1.2,1.67-1.79a.63.63,0,1,1,.91.85Z"/><path class="cls-9" d="M24.8,20.29h1.4a.54.54,0,0,1,.6.52.53.53,0,0,1-.55.59c-1,0-1.95,0-2.93,0a.57.57,0,0,1-.58-.59.58.58,0,0,1,.63-.54Z"/><path class="cls-10" d="M24.78,23h1.4c.38,0,.61.21.62.53a.54.54,0,0,1-.6.59c-.94,0-1.88,0-2.83,0a.57.57,0,0,1-.63-.57.59.59,0,0,1,.65-.55Z"/></g></g></svg>