<svg xmlns="http://www.w3.org/2000/svg" viewBox="0 0 78 78"><defs><style>.cls-1{fill:#068ff1;}</style></defs><title>maintenance_icon@2x</title><g id="Layer_2" data-name="Layer 2"><g id="Layer_1-2" data-name="Layer 1"><path class="cls-1" d="M39.76,0a5.62,5.62,0,0,1,3.78,2.7,5.21,5.21,0,0,1-2.65,7.35c-.24.1-.55.41-.56.63,0,2.39,0,4.77,0,7.16a1.86,1.86,0,0,0,.08.36c1.29-.23,1.82.6,2.23,1.61a3.59,3.59,0,0,1,.17.34,4.15,4.15,0,0,0,3.7,3.16,2.27,2.27,0,0,0,1.07-.07c1-.4,2-.87,3.08-1.31,1.28-.54,1.5-.5,2.48.45l.36.33,3.43-3.46a5.48,5.48,0,0,1,.59-.59,1.45,1.45,0,0,0,.52-2,5,5,0,0,1,2.16-6,5.37,5.37,0,0,1,6.51.87,5.18,5.18,0,0,1-5.85,8.29.77.77,0,0,0-1,.17c-1.47,1.51-3,3-4.44,4.45,0,.11,0,.16.06.19,1.25,1.35,1.26,1.39.43,3a2.63,2.63,0,0,1-.21.41,4.09,4.09,0,0,0-.27,4.78,1.83,1.83,0,0,0,.62.7,26.74,26.74,0,0,0,2.51,1.26,1.82,1.82,0,0,1,1.3,2.06,6.08,6.08,0,0,0,0,.79h1c2.11,0,4.22,0,6.33,0a.74.74,0,0,0,.82-.57,5.18,5.18,0,0,1,5.74-3.24,5.19,5.19,0,1,1-5.77,7c-.09-.21-.33-.52-.5-.52-2.51,0-5,0-7.56,0a1.52,1.52,0,0,0-.07.42,2.2,2.2,0,0,1-1.73,2.63c-.09,0-.18.09-.27.13-2.37,1.19-2.38,1.19-3.13,3.72a1.3,1.3,0,0,0,.06.85c.4.88.85,1.73,1.28,2.59.6,1.2.55,1.49-.4,2.47l-.33.36,2.64,2.62c.63.63,1.28,1.24,1.88,1.89a.76.76,0,0,0,1,.19,5.29,5.29,0,0,1,5.83,1.17,5.19,5.19,0,1,1-8.54,1.52.82.82,0,0,0-.2-1.1c-1.49-1.45-3-2.93-4.39-4.38-.11,0-.18,0-.2,0a2.07,2.07,0,0,1-3.06.51c-.28-.17-.63-.23-.91-.41a4.53,4.53,0,0,0-4.91-.15,1.85,1.85,0,0,0-.75.66,20,20,0,0,0-1.09,2.17c-.44,1-1,1.83-2.33,1.58V62c0,1.67,0,3.35,0,5A.85.85,0,0,0,41,68a5.19,5.19,0,0,1,3.16,5.73,5.19,5.19,0,1,1-7-5.78c.24-.1.58-.4.58-.61,0-2.41,0-4.82,0-7.23,0-.07,0-.15-.09-.3-1.33.21-1.86-.7-2.28-1.74,0-.14-.16-.26-.2-.41a4,4,0,0,0-3.36-2.93,2.21,2.21,0,0,0-1.52.08c-.82.4-1.67.73-2.51,1.09-1.73.74-1.73.74-3.27-.65-.52.56-1,1.15-1.58,1.7-.94,1-1.89,1.91-2.86,2.85a.73.73,0,0,0-.21,1,5.09,5.09,0,1,1-2.49-2.58.73.73,0,0,0,.65,0c1.42-1.38,2.81-2.79,4.21-4.19.16-.16.31-.33.45-.48,0-.08,0-.14-.06-.17-1.23-1.31-1.25-1.39-.45-3l.27-.55c1.16-2.32,1.17-2.33.19-4.78a1.34,1.34,0,0,0-.58-.62c-.83-.45-1.66-.9-2.52-1.26a1.83,1.83,0,0,1-1.29-2.07,5.73,5.73,0,0,0,0-.77H10.84a.7.7,0,0,0-.8.5A5.13,5.13,0,0,1,5,44.18,5.19,5.19,0,0,1,.21,40.41C.15,40.19.07,40,0,39.76V38.24c.07-.21.15-.43.21-.65A5.2,5.2,0,0,1,5,33.82a5.13,5.13,0,0,1,5,3.38.69.69,0,0,0,.79.5c1.73,0,3.46,0,5.18,0h2.14a5.73,5.73,0,0,0,0-.77,1.83,1.83,0,0,1,1.28-2.07A25.74,25.74,0,0,0,22,33.6a1.36,1.36,0,0,0,.59-.62c1-2.45,1-2.45-.18-4.78l-.07-.14c-.74-1.24-1.28-2.46.42-3.47C21.11,23,19.56,21.38,18,19.85c-.12-.13-.51-.11-.71,0a5.19,5.19,0,1,1,.1-9.4c2.18,1.11,3.55,3.58,2.74,5.75a2.3,2.3,0,0,0,.94,3,7.86,7.86,0,0,1,.64.65c.95.94,1.89,1.89,2.84,2.85l.36-.32c1-.94,1.2-1,2.41-.47,1.05.45,2.09.93,3.15,1.33a2.31,2.31,0,0,0,1.08.06,4.14,4.14,0,0,0,3.69-3.16c0-.11.12-.22.17-.34.41-1,.94-1.84,2.27-1.58,0-.32.05-.54.05-.77,0-2.18,0-4.36,0-6.55,0-.52-.17-.71-.66-.9a5.17,5.17,0,0,1-2.62-7.23A5.63,5.63,0,0,1,38.24,0ZM53.52,26.52c-.09-.11-.17-.24-.27-.34a20,20,0,0,0-1.47-1.44.94.94,0,0,0-.77-.11c-1,.4-2,.91-3.09,1.27a2.91,2.91,0,0,1-1.6.08A25.21,25.21,0,0,1,43,24.84a2.77,2.77,0,0,1-1.2-1.05c-.5-.78-.85-1.67-1.3-2.49a1,1,0,0,0-.58-.47c-1.89-.25-2-.17-2.85,1.5-1.38,2.72-.69,2.12-3.55,3.06-3.21,1.06-1.94,1.12-5.15-.22-1.76-.74-1.72-.72-3.15.58a1.15,1.15,0,0,0-.3,1.65c1.71,3.42,1.51,2.05.48,5.66a4.11,4.11,0,0,1-2.79,3.18c-1.39.42-2.13,1.23-1.73,2.77a1.41,1.41,0,0,1,0,.61,1.55,1.55,0,0,0,1.08,1.84c3.36,1.66,2.36.72,3.72,4.21a4.45,4.45,0,0,1-.31,4.23c-.91,1.53-.82,1.58.38,2.84.16.16.3.38.49.47a1.22,1.22,0,0,0,.83.16c1-.39,2-.9,3.09-1.26a2.91,2.91,0,0,1,1.6-.08,23.56,23.56,0,0,1,3.38,1.14,2.87,2.87,0,0,1,1.2,1c.5.79.84,1.68,1.29,2.5a1,1,0,0,0,.59.47c1.89.24,2,.16,2.84-1.5,1.39-2.73.73-2,3.54-3.11a5.58,5.58,0,0,1,5.12.2c1.73.93,1.77.79,3.2-.51a1.16,1.16,0,0,0,.29-1.66c-1.71-3.42-1.51-2-.47-5.66a4.07,4.07,0,0,1,2.78-3.17c1.39-.43,2.11-1.23,1.74-2.78-.1-.43.06-.91,0-1.36a1.11,1.11,0,0,0-.46-.73c-.82-.47-1.69-.83-2.51-1.29a2,2,0,0,1-.87-.78c-1-2.5-2.28-5-.17-7.59a1.76,1.76,0,0,0,.21-.41ZM17.68,15.09a2.59,2.59,0,0,0-2.63-2.59,2.64,2.64,0,0,0-2.55,2.61,2.59,2.59,0,0,0,2.65,2.56A2.54,2.54,0,0,0,17.68,15.09Zm45.23,2.58a2.58,2.58,0,0,0,2.59-2.54,2.59,2.59,0,1,0-5.18,0A2.57,2.57,0,0,0,62.91,17.67ZM39,7.77a2.56,2.56,0,0,0,2.61-2.58,2.59,2.59,0,1,0-5.18,0A2.57,2.57,0,0,0,39,7.77ZM7.77,39.06a2.56,2.56,0,0,0-2.55-2.65,2.59,2.59,0,1,0,0,5.18A2.56,2.56,0,0,0,7.77,39.06Zm65.06-2.65a2.59,2.59,0,0,0,0,5.18,2.59,2.59,0,1,0,0-5.18ZM39,70.23a2.57,2.57,0,0,0-2.61,2.6,2.59,2.59,0,1,0,5.18,0A2.56,2.56,0,0,0,39,70.23ZM15.13,60.32a2.58,2.58,0,1,0-.06,5.16,2.58,2.58,0,1,0,.06-5.16Zm45.19,2.57a2.59,2.59,0,0,0,5.18,0A2.6,2.6,0,0,0,63,60.32,2.57,2.57,0,0,0,60.32,62.89Z"/><path class="cls-1" d="M49.39,39a10.37,10.37,0,0,1-10,10.36c-1.07,0-1.64-.38-1.68-1.2s.52-1.34,1.62-1.39a7.81,7.81,0,0,0,7-10.45,7.78,7.78,0,0,0-15.09,2.31c0,.67-.17,1.28-.86,1.55a1.27,1.27,0,0,1-1.74-1.29,10.11,10.11,0,0,1,3-7.25A10.38,10.38,0,0,1,49.39,39Z"/><path class="cls-1" d="M44.19,39.12a5.19,5.19,0,1,1-5.07-5.3A5.21,5.21,0,0,1,44.19,39.12ZM39,36.41a2.59,2.59,0,1,0,2.56,2.66A2.6,2.6,0,0,0,39,36.41Z"/></g></g></svg>