<svg xmlns="http://www.w3.org/2000/svg" xmlns:xlink="http://www.w3.org/1999/xlink" viewBox="0 0 49.24 49.24"><defs><style>.cls-1{fill:url(#linear-gradient);}.cls-2{fill:url(#linear-gradient-2);}.cls-3{fill:url(#linear-gradient-3);}.cls-4{fill:url(#linear-gradient-4);}.cls-5{fill:url(#linear-gradient-5);}.cls-6{fill:url(#linear-gradient-6);}.cls-7{fill:url(#linear-gradient-7);}.cls-8{fill:url(#linear-gradient-8);}.cls-9{fill:url(#linear-gradient-9);}.cls-10{fill:url(#linear-gradient-10);}.cls-11{fill:url(#linear-gradient-11);}.cls-12{fill:url(#linear-gradient-12);}.cls-13{fill:url(#linear-gradient-13);}.cls-14{fill:url(#linear-gradient-14);}.cls-15{fill:url(#linear-gradient-15);}.cls-16{fill:url(#linear-gradient-16);}.cls-17{fill:url(#linear-gradient-17);}.cls-18{fill:url(#linear-gradient-18);}</style><linearGradient id="linear-gradient" x1="24.62" y1="-16378.44" x2="24.62" y2="-16240.47" gradientTransform="matrix(0.58, 0.82, 0.82, -0.58, 13347.91, -9449.34)" gradientUnits="userSpaceOnUse"><stop offset="0" stop-color="#e1e6ea"/><stop offset="0.34" stop-color="#dee4e7"/><stop offset="0.6" stop-color="#d4dddd"/><stop offset="0.84" stop-color="#c5d1cc"/><stop offset="1" stop-color="#b6c6bd"/></linearGradient><linearGradient id="linear-gradient-2" x1="40.46" y1="35.77" x2="20.29" y2="5.93" gradientUnits="userSpaceOnUse"><stop offset="0" stop-color="#933fff"/><stop offset="0.69" stop-color="#dd3fa1"/><stop offset="1" stop-color="#ff3f75"/></linearGradient><linearGradient id="linear-gradient-3" x1="41.8" y1="34.86" x2="21.64" y2="5.02" xlink:href="#linear-gradient-2"/><linearGradient id="linear-gradient-4" x1="38.8" y1="36.89" x2="18.63" y2="7.06" xlink:href="#linear-gradient-2"/><linearGradient id="linear-gradient-5" x1="29.59" y1="43.11" x2="9.43" y2="13.28" xlink:href="#linear-gradient-2"/><linearGradient id="linear-gradient-6" x1="29.76" y1="43" x2="9.59" y2="13.17" xlink:href="#linear-gradient-2"/><linearGradient id="linear-gradient-7" x1="30.27" y1="42.65" x2="10.11" y2="12.82" xlink:href="#linear-gradient-2"/><linearGradient id="linear-gradient-8" x1="40.34" y1="35.85" x2="20.17" y2="6.02" xlink:href="#linear-gradient-2"/><linearGradient id="linear-gradient-9" x1="26.23" y1="45.38" x2="6.07" y2="15.55" xlink:href="#linear-gradient-2"/><linearGradient id="linear-gradient-10" x1="29.46" y1="43.2" x2="9.3" y2="13.37" xlink:href="#linear-gradient-2"/><linearGradient id="linear-gradient-11" x1="41.01" y1="35.39" x2="20.85" y2="5.56" xlink:href="#linear-gradient-2"/><linearGradient id="linear-gradient-12" x1="30.85" y1="42.26" x2="10.69" y2="12.43" xlink:href="#linear-gradient-2"/><linearGradient id="linear-gradient-13" x1="39.18" y1="36.63" x2="19.01" y2="6.8" xlink:href="#linear-gradient-2"/><linearGradient id="linear-gradient-14" x1="29.67" y1="43.06" x2="9.5" y2="13.23" xlink:href="#linear-gradient-2"/><linearGradient id="linear-gradient-15" x1="28.23" y1="44.03" x2="8.07" y2="14.2" xlink:href="#linear-gradient-2"/><linearGradient id="linear-gradient-16" x1="28.81" y1="43.64" x2="8.64" y2="13.81" xlink:href="#linear-gradient-2"/><linearGradient id="linear-gradient-17" x1="39.39" y1="36.49" x2="19.23" y2="6.65" xlink:href="#linear-gradient-2"/><linearGradient id="linear-gradient-18" x1="41.58" y1="35.01" x2="21.41" y2="5.18" xlink:href="#linear-gradient-2"/></defs><title>notification_icon@2x</title><g id="Layer_2" data-name="Layer 2"><g id="Layer_1-2" data-name="Layer 1"><circle class="cls-1" cx="24.62" cy="24.62" r="24.62" transform="translate(-9.7 30.47) rotate(-54.67)"/><path class="cls-2" d="M32.08,8.83a9.82,9.82,0,0,1,1,.32,3.08,3.08,0,0,1,1.88,2.79c0,2.18,0,4.37,0,6.56,0,.34-.18.54-.46.54s-.46-.21-.46-.58v-6.1a3.64,3.64,0,0,0-.06-.74A2.35,2.35,0,0,0,31.6,9.76H17.69a2.35,2.35,0,0,0-2.45,2.44c0,.39,0,.78,0,1.17s-.19.57-.47.57-.45-.22-.45-.58a15.33,15.33,0,0,1,0-1.66A3.27,3.27,0,0,1,17,8.9l.2-.07Z"/><path class="cls-3" d="M40.41,29c0,.15-.09.31-.13.46a3.34,3.34,0,0,1-3.1,2.43c-.34,0-.55-.15-.57-.43s.19-.47.54-.49a2.39,2.39,0,0,0,2.32-2.24c0-.25,0-.49.3-.59s.47.05.64.24Z"/><path class="cls-4" d="M28.51,31.11a2.19,2.19,0,0,1-2.7-.3,2.22,2.22,0,0,1-.32-2.72c-.56-.56-1.13-1.12-1.69-1.69a1.15,1.15,0,0,1-.27-1.33,1.19,1.19,0,0,1,.73-.62c.42-.15.84-.32,1.28-.43a2.63,2.63,0,0,0,1.31-.8c.52-.57,1.07-1.11,1.63-1.64a4.54,4.54,0,0,1,5.11-1,.31.31,0,0,0,.42-.1,1.78,1.78,0,0,1,1.19-.7,1.5,1.5,0,0,1,1.48.81,1.32,1.32,0,0,1-.19,1.65c-.48.44-.42.8-.27,1.34a4.43,4.43,0,0,1-1.12,4.5c-.67.7-1.38,1.38-2.06,2.08a1.27,1.27,0,0,0-.28.46c-.21.57-.4,1.16-.6,1.74a1.15,1.15,0,0,1-2,.45Zm-1.27-6.89,1,1c.27.27.3.55.09.75s-.47.17-.73-.09-.68-.69-1-1a.48.48,0,0,0-.37-.08c-.53.16-1.05.34-1.57.52-.33.12-.36.26-.11.51Q27.66,29,30.81,32.1c.24.24.37.21.48-.1.18-.52.35-1,.54-1.55a.38.38,0,0,0-.11-.45c-.82-.8-1.63-1.62-2.44-2.44-.26-.26-.28-.51-.07-.72s.47-.18.73.07l1,1,1.44,1.46c.77-.75,1.55-1.42,2.23-2.18A3.69,3.69,0,0,0,29.43,22C28.66,22.65,28,23.45,27.24,24.22Zm.48,6.23-1.56-1.56a1.21,1.21,0,0,0,.34,1.31A1.18,1.18,0,0,0,27.72,30.45Zm7.79-8.52c.22-.21.53-.44.38-.82a.74.74,0,0,0-.44-.41c-.38-.12-.58.19-.77.39Z"/><path class="cls-5" d="M24.61,38.65H17.83a1.64,1.64,0,0,1-1.13-.33A1.54,1.54,0,0,1,16.15,37q0-4.45,0-8.91V24a1.51,1.51,0,0,1,0-.3c0-.24.2-.4.42-.37a.74.74,0,0,1,.44.3c.08.09,0,.27,0,.42V36.93c0,.65.15.8.8.8h13.5c.64,0,.79-.16.79-.78V34.29a1.51,1.51,0,0,1,0-.3.45.45,0,0,1,.89,0,1.23,1.23,0,0,1,0,.27V37a1.49,1.49,0,0,1-1.64,1.64Z"/><path class="cls-6" d="M9.76,22.91c.59-.45,1.12-.87,1.67-1.26a1.36,1.36,0,0,1,.64-.22h5.77c.52,0,.67-.15.67-.68V16.49c0-.55-.14-.7-.68-.7H13.57c-.12,0-.28,0-.35,0a.86.86,0,0,1-.29-.45.37.37,0,0,1,.38-.41c1.65,0,3.31,0,5,0a1.31,1.31,0,0,1,1.16,1.35c0,1.57,0,3.14,0,4.71A1.4,1.4,0,0,1,18,22.35c-1.88,0-3.76,0-5.64,0a1,1,0,0,0-.53.17c-.71.52-1.41,1.06-2.11,1.6-.19.14-.37.24-.6.12a.55.55,0,0,1-.26-.55c0-2.46,0-4.91,0-7.37a1.39,1.39,0,0,1,1.47-1.46h.9a.46.46,0,0,1,.5.43.48.48,0,0,1-.49.49h-1a.47.47,0,0,0-.51.5Z"/><path class="cls-7" d="M24.62,40.4h-7a3.22,3.22,0,0,1-3.25-2.76,16.38,16.38,0,0,1,0-2.43.4.4,0,0,1,.41-.39.42.42,0,0,1,.47.32,2.37,2.37,0,0,1,0,.46c0,.53,0,1.07,0,1.6a2.34,2.34,0,0,0,2.31,2.27c.91,0,1.83,0,2.74,0H31.58A2.34,2.34,0,0,0,34,37.63a3.26,3.26,0,0,0,.07-.76v-6.2c0-.34.19-.54.46-.54s.46.2.46.54c0,.9,0,1.81,0,2.71,0,1.3,0,2.59,0,3.88a3.24,3.24,0,0,1-3.28,3.14Z"/><path class="cls-8" d="M33.1,15.39v3.27c0,.11,0,.26,0,.33a.91.91,0,0,1-.42.34A.38.38,0,0,1,32.2,19a1.8,1.8,0,0,1,0-.4V12.29c0-.62-.15-.77-.76-.77-.28,0-.64-.09-.84,0s-.23.5-.33.77a1.54,1.54,0,0,1-1.42,1.09c-.21,0-.43,0-.65,0H20.84A1.69,1.69,0,0,1,18.91,12c-.17-.52-.17-.52-.73-.52h-.52a.52.52,0,0,0-.57.58c0,.43,0,.86,0,1.29a.48.48,0,0,1-.4.54.45.45,0,0,1-.52-.47c0-.52,0-1,0-1.54a1.38,1.38,0,0,1,1.26-1.3c.55,0,1.11,0,1.67,0a.46.46,0,0,1,.44.36l.27.85c.19.59.34.7,1,.7h7.68c.66,0,.79-.1,1-.72.08-.26.17-.51.24-.76a.54.54,0,0,1,.58-.44h1.24a1.46,1.46,0,0,1,1.59,1.59Z"/><path class="cls-9" d="M14.31,28.41c0-1.51,0-3,0-4.53a.81.81,0,0,1,.15-.48.43.43,0,0,1,.73.21,1.42,1.42,0,0,1,0,.36v8.88a1.08,1.08,0,0,1,0,.18c0,.33-.21.54-.48.53a.48.48,0,0,1-.44-.53Z"/><path class="cls-10" d="M24.62,35.58H27c.37,0,.57.17.57.46s-.21.47-.57.47H22.24c-.38,0-.59-.19-.58-.49s.21-.44.59-.44Z"/><path class="cls-11" d="M24.59,11.61H22.25c-.38,0-.6-.18-.59-.48s.21-.45.58-.45H27c.36,0,.56.17.57.46s-.21.47-.57.47Z"/><path class="cls-12" d="M14.14,18H11.92a1.62,1.62,0,0,1-.31,0,.41.41,0,0,1-.39-.43.42.42,0,0,1,.4-.47h4.75a1.51,1.51,0,0,1,.3,0,.45.45,0,0,1,0,.89,1.62,1.62,0,0,1-.31,0Z"/><path class="cls-13" d="M24.82,19.5A3.34,3.34,0,0,1,28,16.31c.37,0,.61.16.61.45s-.19.44-.56.47a2.42,2.42,0,0,0-2.31,2.33c0,.36-.21.56-.49.54S24.8,19.86,24.82,19.5Z"/><path class="cls-14" d="M13.83,20.08c-.69,0-1.39,0-2.09,0-.39,0-.6-.27-.5-.59a.43.43,0,0,1,.46-.33h4.24a.45.45,0,0,1,.5.47c0,.28-.19.45-.52.45C15.23,20.09,14.53,20.08,13.83,20.08Z"/><path class="cls-15" d="M21,33.76c-.5,0-1,0-1.51,0-.35,0-.54-.16-.55-.44s.2-.48.55-.48h3c.36,0,.57.19.56.48s-.21.44-.56.44S21.49,33.76,21,33.76Z"/><path class="cls-16" d="M20.35,31.61h-.92a.46.46,0,1,1,0-.91c.64,0,1.29,0,1.94,0a.46.46,0,1,1,0,.91Z"/><path class="cls-17" d="M26.77,19.55a1.37,1.37,0,0,1,1.35-1.29.46.46,0,0,1,.49.42.42.42,0,0,1-.38.48.56.56,0,0,0-.56.57.44.44,0,0,1-.52.37A.48.48,0,0,1,26.77,19.55Z"/><path class="cls-18" d="M38.45,28.64a1.37,1.37,0,0,1-1.34,1.3.45.45,0,0,1-.49-.4A.43.43,0,0,1,37,29a.53.53,0,0,0,.54-.52.44.44,0,0,1,.51-.41A.45.45,0,0,1,38.45,28.64Z"/></g></g></svg>