<svg xmlns="http://www.w3.org/2000/svg" xmlns:xlink="http://www.w3.org/1999/xlink" viewBox="0 0 49.24 49.24"><defs><style>.cls-1{fill:url(#linear-gradient);}.cls-2{fill:url(#linear-gradient-2);}.cls-3{fill:url(#linear-gradient-3);}.cls-4{fill:url(#linear-gradient-4);}.cls-5{fill:url(#linear-gradient-5);}.cls-6{fill:url(#linear-gradient-6);}.cls-7{fill:url(#linear-gradient-7);}.cls-8{fill:url(#linear-gradient-8);}.cls-9{fill:url(#linear-gradient-9);}.cls-10{fill:url(#linear-gradient-10);}</style><linearGradient id="linear-gradient" x1="24.62" y1="-16378.44" x2="24.62" y2="-16240.47" gradientTransform="matrix(0.38, 0.93, 0.93, -0.38, 15159.72, -6155.57)" gradientUnits="userSpaceOnUse"><stop offset="0" stop-color="#e1e6ea"/><stop offset="0.34" stop-color="#dee4e7"/><stop offset="0.6" stop-color="#d4dddd"/><stop offset="0.84" stop-color="#c5d1cc"/><stop offset="1" stop-color="#b6c6bd"/></linearGradient><linearGradient id="linear-gradient-2" x1="16.08" y1="11.74" x2="38.25" y2="39.91" gradientUnits="userSpaceOnUse"><stop offset="0" stop-color="#5fe3ff"/><stop offset="1" stop-color="#b15fff"/></linearGradient><linearGradient id="linear-gradient-3" x1="14.31" y1="13.13" x2="36.48" y2="41.3" xlink:href="#linear-gradient-2"/><linearGradient id="linear-gradient-4" x1="21.97" y1="7.1" x2="44.14" y2="35.27" xlink:href="#linear-gradient-2"/><linearGradient id="linear-gradient-5" x1="20.75" y1="8.06" x2="42.92" y2="36.23" xlink:href="#linear-gradient-2"/><linearGradient id="linear-gradient-6" x1="22.83" y1="6.43" x2="44.99" y2="34.6" xlink:href="#linear-gradient-2"/><linearGradient id="linear-gradient-7" x1="21.58" y1="7.41" x2="43.75" y2="35.58" xlink:href="#linear-gradient-2"/><linearGradient id="linear-gradient-8" x1="17.48" y1="10.64" x2="39.65" y2="38.8" xlink:href="#linear-gradient-2"/><linearGradient id="linear-gradient-9" x1="16.26" y1="11.6" x2="38.43" y2="39.76" xlink:href="#linear-gradient-2"/><linearGradient id="linear-gradient-10" x1="9.67" y1="16.79" x2="31.84" y2="44.95" xlink:href="#linear-gradient-2"/></defs><title>reporting_icon@2x</title><g id="Layer_2" data-name="Layer 2"><g id="Layer_1-2" data-name="Layer 1"><circle class="cls-1" cx="24.62" cy="24.62" r="24.62" transform="translate(-7.46 38.15) rotate(-67.87)"/><path class="cls-2" d="M39.1,40.66H17.66c-1.28-.52-1.56-.95-1.56-2.36V26.12h-.45A6.85,6.85,0,0,1,9,21.61a17.91,17.91,0,0,1-.44-1.75V18.6c0-.11.05-.22.07-.33a6.88,6.88,0,0,1,7.12-5.92h.33V10.53a2,2,0,0,1,.45-1.3,2.46,2.46,0,0,1,1.11-.65H33.9a4.41,4.41,0,0,1,.49.36q3,3,5.91,5.91a4.41,4.41,0,0,1,.36.49V39.1a4.94,4.94,0,0,1-.19.49A2,2,0,0,1,39.1,40.66Zm-6-30.82H18.08c-.49,0-.72.25-.73.74s0,1.13,0,1.7a.38.38,0,0,0,.31.44,6.87,6.87,0,0,1,0,13,.39.39,0,0,0-.32.44q0,6.17,0,12.34c0,.68.2.88.88.88h20.3c.68,0,.88-.2.88-.88V16.1H34c-.7,0-.9-.19-.9-.89Zm-18.3,3.81a5.63,5.63,0,0,0,.89,11.21,5.54,5.54,0,0,0,5.3-5H15.71c-.66,0-.87-.21-.87-.86V13.65Zm6.21,4.94a5.52,5.52,0,0,0-4.94-4.92v4.92ZM38.4,14.83l-4-4v4Z"/><path class="cls-3" d="M34.52,28.18a1.88,1.88,0,0,1,2.9-2.37A1.87,1.87,0,0,1,37.76,28a1.89,1.89,0,0,1-2,1,.47.47,0,0,0-.35.1c-1.39,1.47-2.77,3-4.15,4.44a.35.35,0,0,0-.06.09,1.88,1.88,0,1,1-3.35.47.49.49,0,0,0-.1-.56c-.54-.65-1.07-1.31-1.6-2-.11-.15-.21-.15-.39-.13a4.34,4.34,0,0,1-1.08,0,.39.39,0,0,0-.42.13c-.64.7-1.28,1.4-1.94,2.1a.35.35,0,0,0-.08.41,1.84,1.84,0,0,1-.85,2.23,1.86,1.86,0,0,1-2.35-.43,1.84,1.84,0,0,1,0-2.41,1.79,1.79,0,0,1,2-.58.36.36,0,0,0,.45-.12c.63-.71,1.28-1.41,1.93-2.1a.34.34,0,0,0,.08-.41,1.84,1.84,0,0,1,.67-2.11,1.86,1.86,0,0,1,2.22,0A1.83,1.83,0,0,1,27,30.26a.42.42,0,0,0,.08.45c.55.67,1.1,1.34,1.64,2a.31.31,0,0,0,.39.13,2,2,0,0,1,.77-.06.49.49,0,0,0,.51-.18l3.91-4.19Zm2.19-1.06a.62.62,0,0,0-1.24,0,.62.62,0,1,0,1.24,0ZM25.26,29a.63.63,0,0,0,0,1.25.63.63,0,0,0,0-1.25Zm-4.77,6.26a.65.65,0,0,0,.62-.63.63.63,0,1,0-.62.63Zm9.77-.63a.64.64,0,0,0-.63-.61.64.64,0,0,0-.62.62.65.65,0,0,0,.63.62A.65.65,0,0,0,30.26,34.64Z"/><path class="cls-4" d="M31.51,19.86H26.69a.62.62,0,0,1,0-1.24h9.4c.51,0,.81.24.81.63s-.3.63-.81.63Z"/><path class="cls-5" d="M31.51,22.36H27a1.61,1.61,0,0,1-.31,0,.62.62,0,0,1,0-1.23h9.4c.51,0,.81.24.81.63s-.3.62-.81.62Z"/><path class="cls-6" d="M27.94,13.59c-1.05,0-2.11,0-3.16,0a.8.8,0,0,1-.52-.14.76.76,0,0,1-.23-.57.91.91,0,0,1,.39-.47.72.72,0,0,1,.42-.06h6.39a.64.64,0,0,1,.66.62.65.65,0,0,1-.66.63H27.94Z"/><path class="cls-7" d="M28,14.84H31.1a.84.84,0,0,1,.53.14.79.79,0,0,1,.22.57c0,.18-.22.35-.38.48a.81.81,0,0,1-.42.05h-6.4a.62.62,0,1,1,0-1.24c.46,0,.92,0,1.38,0Z"/><path class="cls-8" d="M24.25,18.61a.65.65,0,0,1,.62.63.65.65,0,0,1-.64.61.64.64,0,0,1-.61-.63A.64.64,0,0,1,24.25,18.61Z"/><path class="cls-9" d="M24.24,22.36a.65.65,0,0,1-.62-.63.64.64,0,0,1,.63-.61.64.64,0,0,1,.62.62A.65.65,0,0,1,24.24,22.36Z"/><path class="cls-10" d="M15.28,23.61a4.39,4.39,0,0,1-4.19-4.25.64.64,0,0,1,.5-.73c.4-.1.72.2.75.7a3.18,3.18,0,0,0,3,3,.71.71,0,0,1,.69.39C16.24,23.21,15.87,23.63,15.28,23.61Z"/></g></g></svg>