<svg xmlns="http://www.w3.org/2000/svg" viewBox="0 0 78 77.98"><defs><style>.cls-1{fill:#068ff1;}</style></defs><title>report&amp;amp;notif_icon@2x</title><g id="Layer_2" data-name="Layer 2"><g id="Layer_1-2" data-name="Layer 1"><path class="cls-1" d="M18.73,0H69.6a1.36,1.36,0,0,0,.28.11,6.12,6.12,0,0,1,5.2,4.7,18.2,18.2,0,0,1,.29,3.85c0,1.29-.43,1.72-1.74,1.72H65v11.7h5.13c3.42,0,5.21,1.79,5.21,5.2v39c.5,0,.88,0,1.26,0A1.31,1.31,0,0,1,78,67.66c0,1.35.07,2.7,0,4a7.19,7.19,0,0,1-.63,2.55A6.36,6.36,0,0,1,71.16,78c-5,0-10,0-15,0Q31.58,78,7,78A6.9,6.9,0,0,1,2,76.17a7.24,7.24,0,0,1-2-4v-5c.57-1,1.59-.89,2.59-.91V34.93q0-4,0-7.92a4.57,4.57,0,0,1,4.95-4.92c1.57,0,3.14,0,4.72,0,.22,0,.44,0,.71-.05v-.95C13,16.4,13,11.71,13,7a7,7,0,0,1,1.79-4.95A7.35,7.35,0,0,1,18.73,0ZM15.67,66.25h.93c4.75,0,9.49,0,14.24,0a1.76,1.76,0,0,1,1.64.87c.55.89,1.12,1.76,1.74,2.59a1.26,1.26,0,0,0,.85.45q3.91,0,7.84,0a1.18,1.18,0,0,0,.84-.45c.61-.81,1.17-1.66,1.7-2.52a1.86,1.86,0,0,1,1.76-.94c4.75,0,9.49,0,14.24,0h.86v-.77q0-22.33.08-44.68c0-4.06,0-8.12-.06-12.18,0-2,0-4.07,1.18-5.85,0,0,0-.09,0-.18H63q-21.54,0-43.09,0a4.23,4.23,0,0,0-2.77.86A4.19,4.19,0,0,0,15.58,7c0,7.51.08,15,.08,22.53q0,17.82,0,35.63Zm59.7,2.62h-.83c-3.19,0-6.39.07-9.59.07q-8.37,0-16.75,0a1.13,1.13,0,0,0-1.11.58c-.52.87-1.12,1.69-1.67,2.54a1.61,1.61,0,0,1-1.46.79c-3.32,0-6.65,0-10,0a1.54,1.54,0,0,1-1.4-.74c-.55-.82-1.13-1.62-1.64-2.47a1.27,1.27,0,0,0-1.28-.69q-12.53,0-25,0h-2v1.85c0,3.12,1.51,4.62,4.62,4.62H70.79c.28,0,.56,0,.83,0a3.9,3.9,0,0,0,3.74-3.72C75.41,70.77,75.37,69.88,75.37,68.87ZM7.78,66.21V29.4c0-1.79.34-2.12,2.14-2.12h3v-2.6H7.62c-1.7,0-2.43.74-2.43,2.46V66.21Zm62.41,0h2.6V27.11a5.1,5.1,0,0,0,0-.68,1.91,1.91,0,0,0-1.69-1.71c-2-.06-4,0-6,0v2.51a1,1,0,0,0,.2.06h2.81c1.76,0,2.11.34,2.11,2.08V66.2ZM12.93,29.93H10.45V66.2h2.48Zm52.15,0V66.2h2.47V29.93ZM72.75,7.75c.17-1.9-.17-3.53-1.86-4.56a3.66,3.66,0,0,0-4.16.11c-1.58,1-1.9,2.64-1.65,4.45Z"/><path class="cls-1" d="M39,16.9H56.57c1.52,0,1.91.38,1.91,1.87,0,2.26,0,4.52,0,6.77,0,1.3-.43,1.74-1.73,1.74H21.21c-1.29,0-1.71-.44-1.71-1.75q0-3.47,0-6.93c0-1.25.45-1.7,1.69-1.7ZM22.12,24.63H55.83v-5.1H22.12Z"/><path class="cls-1" d="M29.88,35.11c0,1.22,0,2.44,0,3.65,0,1-.46,1.51-1.49,1.52-2.46,0-4.91,0-7.37,0-1.06,0-1.52-.51-1.52-1.57q0-3.6,0-7.22c0-1.09.48-1.59,1.57-1.6q3.6,0,7.22,0c1.11,0,1.57.48,1.59,1.57S29.88,33.9,29.88,35.11Zm-2.64-2.57H22.13v5.1h5.11Z"/><path class="cls-1" d="M48.1,35.06c0-1.21,0-2.43,0-3.65a1.33,1.33,0,0,1,1.48-1.52q3.69,0,7.38,0c1,0,1.51.52,1.52,1.57q0,3.61,0,7.23c0,1.1-.47,1.58-1.57,1.59-2.41,0-4.82,0-7.22,0-1.15,0-1.58-.48-1.59-1.65S48.1,36.25,48.1,35.06Zm7.73,2.59V32.52H50.75v5.13Z"/><path class="cls-1" d="M44.18,35.12c0,1.19,0,2.38,0,3.57s-.45,1.59-1.56,1.59q-3.64,0-7.3,0c-1.05,0-1.5-.5-1.51-1.57,0-2.41,0-4.81,0-7.22,0-1.1.47-1.59,1.57-1.6q3.6,0,7.22,0c1.13,0,1.58.5,1.59,1.65Zm-7.75,2.5h5.12V32.53H36.43Z"/><path class="cls-1" d="M38.34,58.48h6.91c.92,0,1.49.49,1.51,1.25s-.55,1.33-1.5,1.33H31.43c-.88,0-1.38-.39-1.49-1.1s.47-1.48,1.48-1.48C33.72,58.47,36,58.48,38.34,58.48Z"/><path class="cls-1" d="M39.66,6.51h7a1.16,1.16,0,0,1,1.27.77,1.63,1.63,0,0,1-.2,1.31,2.06,2.06,0,0,1-1.34.5c-1.9.05-3.8,0-5.7,0h-7.6a3.9,3.9,0,0,1-.76-.06,1.23,1.23,0,0,1-1.1-1.31,1.21,1.21,0,0,1,1.22-1.21c1.09,0,2.18,0,3.27,0Z"/><path class="cls-1" d="M39.64,42.9h6.55A4.57,4.57,0,0,1,47,43a1.18,1.18,0,0,1,1,1.22,1.16,1.16,0,0,1-.94,1.23,3.87,3.87,0,0,1-.9.09H33.05a3.29,3.29,0,0,1-.83-.08,1.2,1.2,0,0,1-1-1.32,1.16,1.16,0,0,1,1.11-1.15c.63-.06,1.27,0,1.9,0Z"/><path class="cls-1" d="M35.1,14.31c-2.08,0-4.16,0-6.25,0-1.2,0-1.89-1-1.39-1.89a1.39,1.39,0,0,1,1.41-.7h7.31c1.7,0,3.4,0,5.1,0,1,0,1.57.47,1.58,1.26s-.57,1.33-1.6,1.33Z"/><path class="cls-1" d="M35.09,48.1H41a4.74,4.74,0,0,1,.76,0,1.18,1.18,0,0,1,1.05,1.13A1.16,1.16,0,0,1,42,50.59a3.41,3.41,0,0,1-.9.1H28.72A1.35,1.35,0,0,1,27.3,49.4a1.32,1.32,0,0,1,1.47-1.3Z"/><path class="cls-1" d="M42.94,53.29c2.1,0,4.21,0,6.31,0,1.1,0,1.79,1,1.25,1.84a1.75,1.75,0,0,1-1.23.71c-4.26.06-8.52,0-12.79,0a1.29,1.29,0,1,1,.06-2.58C38.67,53.28,40.8,53.29,42.94,53.29Z"/><path class="cls-1" d="M26,53.29h4.94c1,0,1.54.48,1.54,1.29s-.57,1.29-1.55,1.29H21.1c-1,0-1.62-.55-1.59-1.35s.61-1.24,1.6-1.24Z"/><path class="cls-1" d="M52,14.31H47a1.36,1.36,0,0,1-1.48-.94,1.28,1.28,0,0,1,1.36-1.64c1.73,0,3.45,0,5.18,0,1.57,0,3.14,0,4.72,0,1,0,1.64.47,1.65,1.27s-.61,1.32-1.69,1.32Z"/><path class="cls-1" d="M52,48.1H56.9c1,0,1.56.49,1.57,1.27s-.59,1.32-1.54,1.32q-4.95,0-9.89,0c-1,0-1.54-.53-1.52-1.33s.55-1.25,1.56-1.26Z"/><path class="cls-1" d="M54,58.48c1,0,2,0,3,0s1.55.55,1.52,1.33-.6,1.25-1.52,1.25c-2,0-4.05,0-6.07,0a1.3,1.3,0,1,1,0-2.58C51.92,58.47,53,58.48,54,58.48Z"/><path class="cls-1" d="M24,6.51c1,0,2.08,0,3.11,0a1.29,1.29,0,1,1,.07,2.57q-3.16.06-6.31,0a1.3,1.3,0,0,1-1.39-1.3c0-.76.56-1.26,1.48-1.28Z"/><path class="cls-1" d="M24.06,42.9c1,0,2,0,3,0s1.48.53,1.48,1.29a1.34,1.34,0,0,1-1.48,1.3c-2,0-4.05,0-6.08,0-.95,0-1.54-.57-1.51-1.34s.57-1.23,1.51-1.25S23.05,42.9,24.06,42.9Z"/><path class="cls-1" d="M54.6,6.51c.83,0,1.67,0,2.5,0a1.29,1.29,0,0,1,1.37,1.24,1.27,1.27,0,0,1-1.28,1.32c-1.72.05-3.44.05-5.16,0a1.29,1.29,0,1,1,.06-2.57C52.93,6.49,53.76,6.51,54.6,6.51Z"/><path class="cls-1" d="M23.38,61.08c-.8,0-1.61,0-2.42,0a1.33,1.33,0,0,1-1.45-1.32,1.31,1.31,0,0,1,1.43-1.26c1.64,0,3.28,0,4.93,0a1.29,1.29,0,0,1,1.4,1.28,1.31,1.31,0,0,1-1.46,1.3C25,61.09,24.19,61.08,23.38,61.08Z"/><path class="cls-1" d="M54.6,45.5c-.81,0-1.62,0-2.43,0s-1.46-.55-1.46-1.31.54-1.26,1.47-1.28c1.59,0,3.19,0,4.78,0,.93,0,1.49.5,1.51,1.25S57.91,45.44,57,45.5H54.6Z"/><path class="cls-1" d="M55.88,53.3c.46,0,.92,0,1.37,0a1.29,1.29,0,0,1,1.22,1.23,1.21,1.21,0,0,1-1.07,1.28,19.16,19.16,0,0,1-3,0,1.18,1.18,0,0,1-1.06-1.35,1.23,1.23,0,0,1,1.2-1.16C55,53.27,55.43,53.3,55.88,53.3Z"/><path class="cls-1" d="M22.1,48.12a14,14,0,0,1,1.45,0,1.17,1.17,0,0,1,1.11,1.15,1.07,1.07,0,0,1-.92,1.29,18.41,18.41,0,0,1-3.32,0,1.07,1.07,0,0,1-.89-1.31,1.16,1.16,0,0,1,1.13-1.13,13.83,13.83,0,0,1,1.44,0Z"/><path class="cls-1" d="M22.16,11.72c.43,0,.86,0,1.29,0a1.21,1.21,0,0,1,1.21,1.14,1.14,1.14,0,0,1-1,1.34,18.76,18.76,0,0,1-3.18,0,1.15,1.15,0,0,1-1-1.31,1.22,1.22,0,0,1,1.19-1.17c.48,0,1,0,1.45,0Z"/></g></g></svg>