<svg xmlns="http://www.w3.org/2000/svg" xmlns:xlink="http://www.w3.org/1999/xlink" viewBox="0 0 49.24 49.24"><defs><style>.cls-1{fill:url(#linear-gradient);}.cls-2{fill:url(#linear-gradient-2);}.cls-3{fill:url(#linear-gradient-3);}.cls-4{fill:url(#linear-gradient-4);}.cls-5{fill:url(#linear-gradient-5);}.cls-6{fill:url(#linear-gradient-6);}.cls-7{fill:url(#linear-gradient-7);}</style><linearGradient id="linear-gradient" x1="35.58" y1="-5.57" x2="35.58" y2="132.4" gradientTransform="matrix(-0.92, -0.4, -0.4, 0.92, 67.08, 16.31)" gradientUnits="userSpaceOnUse"><stop offset="0" stop-color="#e1e6ea"/><stop offset="0.34" stop-color="#dee4e7"/><stop offset="0.6" stop-color="#d4dddd"/><stop offset="0.84" stop-color="#c5d1cc"/><stop offset="1" stop-color="#b6c6bd"/></linearGradient><linearGradient id="linear-gradient-2" x1="32.99" y1="36.39" x2="14.99" y2="13.89" gradientUnits="userSpaceOnUse"><stop offset="0" stop-color="#bdf7a3"/><stop offset="1" stop-color="#009ee0"/></linearGradient><linearGradient id="linear-gradient-3" x1="35.01" y1="34.78" x2="17.01" y2="12.28" xlink:href="#linear-gradient-2"/><linearGradient id="linear-gradient-4" x1="34.57" y1="35.13" x2="16.57" y2="12.63" xlink:href="#linear-gradient-2"/><linearGradient id="linear-gradient-5" x1="32.05" y1="37.15" x2="14.05" y2="14.65" xlink:href="#linear-gradient-2"/><linearGradient id="linear-gradient-6" x1="29.31" y1="39.34" x2="11.31" y2="16.84" xlink:href="#linear-gradient-2"/><linearGradient id="linear-gradient-7" x1="35.55" y1="34.35" x2="17.55" y2="11.85" xlink:href="#linear-gradient-2"/></defs><title>security_icon@2x</title><g id="Layer_2" data-name="Layer 2"><g id="Layer_1-2" data-name="Layer 1"><circle class="cls-1" cx="24.62" cy="24.62" r="24.62" transform="translate(-7.8 11.92) rotate(-23.61)"/><path class="cls-2" d="M32,30a.63.63,0,0,1,.5,1c-.28.44-.59.86-.91,1.27a18.08,18.08,0,0,1-3,2.93.64.64,0,0,1-.94,0,.66.66,0,0,1,.1-1c.38-.33.77-.64,1.14-1a15.35,15.35,0,0,0,2.47-2.86A.72.72,0,0,1,32,30Z"/><path class="cls-3" d="M24.37,40c-4.57-1.14-9.77-6-11.65-11.26a17.39,17.39,0,0,1-1.14-5.26c-.08-2.75-.06-5.51-.08-8.26,0-.4.16-.59.59-.71A54.31,54.31,0,0,0,18,12.44a48.49,48.49,0,0,0,6-3,1,1,0,0,1,1.09,0,50.63,50.63,0,0,0,11.86,5c.6.17.71.32.71.93,0,2.35,0,4.69,0,7A18.61,18.61,0,0,1,32.59,35a18.82,18.82,0,0,1-5.66,4.24c-.66.31-1.38.5-2.08.75ZM36.43,15.65l-.36-.12c-.86-.27-1.72-.53-2.57-.83a51.48,51.48,0,0,1-8.61-3.94.5.5,0,0,0-.57,0c-.42.26-.86.5-1.3.73a50.13,50.13,0,0,1-9.93,4.05.36.36,0,0,0-.31.43c0,1.88,0,3.76,0,5.65a18.87,18.87,0,0,0,1.11,6.53,18.26,18.26,0,0,0,9.7,10.25,2.24,2.24,0,0,0,1.91.06c.28-.14.57-.24.85-.38a18,18,0,0,0,5.28-4,17.16,17.16,0,0,0,4.76-11.37c.1-2.31,0-4.63.06-6.94A1.28,1.28,0,0,0,36.43,15.65Z"/><path class="cls-4" d="M22.53,25.64l.84-.86,5.54-5.54a2.1,2.1,0,0,1,3.26,2.65c-.09.12-.19.23-.29.34L24.14,30a2.08,2.08,0,0,1-2.67.43A2.54,2.54,0,0,1,21,30q-1.82-1.8-3.63-3.63a2.11,2.11,0,0,1,.11-3.24,2,2,0,0,1,2.55,0c.72.63,1.38,1.33,2.07,2Zm-.15,3.76a1,1,0,0,0,.85-.35Q27.1,25.17,31,21.3l.18-.2a.8.8,0,0,0-.42-1.26.88.88,0,0,0-.93.33l-6.65,6.65c-.47.47-.77.47-1.24,0l-2.6-2.59a.81.81,0,1,0-1.14,1.14c1.24,1.25,2.48,2.5,3.74,3.73A2,2,0,0,0,22.38,29.4Z"/><path class="cls-5" d="M14.05,18.32c0-.38,0-.76,0-1.14a.7.7,0,0,1,.52-.75L18,15.24a.65.65,0,0,1,.83.2.62.62,0,0,1,0,.78,1.45,1.45,0,0,1-.43.26l-2.71,1a.32.32,0,0,0-.27.37c0,.55,0,1.1,0,1.65a.66.66,0,0,1-.45.7.59.59,0,0,1-.81-.47c0-.46,0-.92,0-1.38Z"/><path class="cls-6" d="M25.87,35.86a.67.67,0,0,1,.65-.67.65.65,0,0,1,.66.61.71.71,0,0,1-.69.7A.63.63,0,0,1,25.87,35.86Z"/><path class="cls-7" d="M20.09,15.69a.66.66,0,0,1-.63-.64.68.68,0,0,1,.66-.65.65.65,0,1,1,0,1.29Z"/></g></g></svg>