<svg xmlns="http://www.w3.org/2000/svg" xmlns:xlink="http://www.w3.org/1999/xlink" viewBox="0 0 49.24 49.24"><defs><style>.cls-1{fill:url(#linear-gradient);}.cls-2{fill:url(#linear-gradient-2);}.cls-3{fill:url(#linear-gradient-3);}.cls-4{fill:url(#linear-gradient-4);}.cls-5{fill:url(#linear-gradient-5);}.cls-6{fill:url(#linear-gradient-6);}.cls-7{fill:url(#linear-gradient-7);}</style><linearGradient id="linear-gradient" x1="24.62" y1="-16378.44" x2="24.62" y2="-16240.47" gradientTransform="matrix(0.58, 0.82, 0.82, -0.58, 13347.91, -9449.34)" gradientUnits="userSpaceOnUse"><stop offset="0" stop-color="#e1e6ea"/><stop offset="0.34" stop-color="#dee4e7"/><stop offset="0.6" stop-color="#d4dddd"/><stop offset="0.84" stop-color="#c5d1cc"/><stop offset="1" stop-color="#b6c6bd"/></linearGradient><linearGradient id="linear-gradient-2" x1="47.57" y1="31.08" x2="27.57" y2="5.41" gradientUnits="userSpaceOnUse"><stop offset="0" stop-color="#4a54eb"/><stop offset="0.56" stop-color="#a839f6"/><stop offset="1" stop-color="#f522ff"/></linearGradient><linearGradient id="linear-gradient-3" x1="52.54" y1="27.21" x2="32.54" y2="1.54" xlink:href="#linear-gradient-2"/><linearGradient id="linear-gradient-4" x1="31.78" y1="43.38" x2="11.78" y2="17.72" xlink:href="#linear-gradient-2"/><linearGradient id="linear-gradient-5" x1="47.37" y1="31.23" x2="27.37" y2="5.57" xlink:href="#linear-gradient-2"/><linearGradient id="linear-gradient-6" x1="49.05" y1="29.92" x2="29.05" y2="4.26" xlink:href="#linear-gradient-2"/><linearGradient id="linear-gradient-7" x1="46.65" y1="31.8" x2="26.65" y2="6.13" xlink:href="#linear-gradient-2"/></defs><title>support_icon@2x</title><g id="Layer_2" data-name="Layer 2"><g id="Layer_1-2" data-name="Layer 1"><circle class="cls-1" cx="24.62" cy="24.62" r="24.62" transform="translate(-9.7 30.47) rotate(-54.67)"/><path class="cls-2" d="M39.61,12.39c-.16.18-.33.35-.6.24s-.29-.34-.28-.58V11.4a.85.85,0,0,0-.82-.86h-7.2c-.74,0-1.05.31-1.05,1.05v3.31c0,.67.27,1,.94,1a1.19,1.19,0,0,1,1.09,1.22c0,.53,0,1.05.06,1.59.27-.44.53-.88.79-1.32.17-.28.34-.55.5-.83a1.25,1.25,0,0,1,1.18-.67h3.51a.87.87,0,0,0,1-1c0-.15,0-.31,0-.47s0-.48.3-.56a.47.47,0,0,1,.58.28v1.23a5.21,5.21,0,0,1-.33.67,1.64,1.64,0,0,1-1.42.73H34.29a.55.55,0,0,0-.54.3c-.51.88-1,1.74-1.56,2.61a.72.72,0,0,1-1.37-.36V17.26c0-.37-.08-.45-.43-.48a1.71,1.71,0,0,1-1.6-1.68c0-1.26,0-2.51,0-3.77a1.71,1.71,0,0,1,1.38-1.64l.13,0h7.78a1.86,1.86,0,0,1,1.05.56,7.78,7.78,0,0,1,.48.85Z"/><path class="cls-3" d="M39.61,11.05a7.78,7.78,0,0,0-.48-.85,1.86,1.86,0,0,0-1.05-.56h1.53Z"/><path class="cls-4" d="M16.17,21.82h-.49a1.41,1.41,0,0,1-1.46-1.4c0-.57,0-1.13,0-1.7a1.46,1.46,0,0,1,.62-1.17.44.44,0,0,0,.17-.32,22.5,22.5,0,0,1,.07-2.33,4.11,4.11,0,0,1,4.11-3.59c1.53,0,3.06,0,4.6,0a1.86,1.86,0,0,1,1.94,1.75c0,.16.09.2.24.21a1.85,1.85,0,0,1,1.77,1.81c0,.7,0,1.4,0,2.1a.43.43,0,0,0,.2.41,1.34,1.34,0,0,1,.6,1.18V22a1.72,1.72,0,0,1-1.73,1.76,1.4,1.4,0,0,0-1.41.69,5.45,5.45,0,0,1-1,.89.53.53,0,0,0-.17.33,8.18,8.18,0,0,0,0,1c0,.5.22.71.7.71,1.43,0,2.85,0,4.28,0A1.81,1.81,0,0,1,31.2,29.5q0,.55-.06,1.11a.51.51,0,0,0,.11.31,8,8,0,0,1,1.53,4.82v.85A2.19,2.19,0,0,0,33,37.65a1.36,1.36,0,0,1-1.17,2H11.18a1.4,1.4,0,0,1-1.33-2.14A.94.94,0,0,0,10,37a13.74,13.74,0,0,1,.23-3.26A8.52,8.52,0,0,1,11.47,31a.94.94,0,0,0,.14-.5c0-.41,0-.82,0-1.23a1.77,1.77,0,0,1,1.84-1.87c1.49,0,3,0,4.45,0a.55.55,0,0,0,.63-.54c0-.42,0-.84,0-1.26a.28.28,0,0,0-.12-.2A5,5,0,0,1,16.21,22,.38.38,0,0,0,16.17,21.82ZM11.72,32.4a7.49,7.49,0,0,0-.84,4.4h1c0-.43,0-.84,0-1.25a.4.4,0,0,1,.39-.43.39.39,0,0,1,.45.33,2.33,2.33,0,0,1,0,.38l.06,1h6.87a.83.83,0,0,0-.06-.25,8.89,8.89,0,0,0-.69-1.2,3.15,3.15,0,0,1,.73-4.61.75.75,0,0,1,.8-.08.7.7,0,0,1,.35.69v1.32c0,.85-.1.71.76.73.24,0,.32-.09.32-.33,0-.6,0-1.21,0-1.81a.66.66,0,0,1,1-.59l.27.17a3.1,3.1,0,0,1,.52,4.57,2.84,2.84,0,0,0-.68,1.39h6.87c0-.13,0-.24,0-.36q.18-3.47.37-7c.05-.89-.27-1.24-1.16-1.24H13.27a.9.9,0,0,0-.83.93c0,.26,0,.52,0,.79.07,1.14.13,2.29.19,3.44a.44.44,0,0,1-.4.52c-.27,0-.45-.15-.47-.47S11.74,32.76,11.72,32.4Zm14-12.8c-.84-.19-1-.42-1-1.26,0-.48,0-1,0-1.44a1.06,1.06,0,0,0-1.16-1.11,2.82,2.82,0,0,0-.57.09c-.34.06-.67.15-1,.2a6.45,6.45,0,0,1-2.43-.25A1.12,1.12,0,0,0,18.05,17c0,.52,0,1,0,1.58a.93.93,0,0,1-.84,1L17,19.6a18.16,18.16,0,0,0,.12,2.34,4.31,4.31,0,0,0,5.45,3.35,4.08,4.08,0,0,0,1.52-.78c-.27,0-.48,0-.69-.05a1.18,1.18,0,0,1-1-1.1,1.12,1.12,0,0,1,.88-1.22,3.24,3.24,0,0,1,2.28.26A10.94,10.94,0,0,0,25.74,19.6Zm-8.57-.89V17.09a3.45,3.45,0,0,1,0-.64A2,2,0,0,1,19.85,15,5.32,5.32,0,0,0,23,15a2,2,0,0,1,1.29,0,1.94,1.94,0,0,1,1.35,1.92c0,.57,0,1.14,0,1.77l.95-.32a.46.46,0,0,0,.33-.47c0-.91,0-1.83,0-2.75a1,1,0,0,0-1-1,.94.94,0,0,1-1-1,1,1,0,0,0-1.07-1c-1.53,0-3.06,0-4.6,0A3.19,3.19,0,0,0,16,15a22.75,22.75,0,0,0,0,3,.38.38,0,0,0,.2.29C16.43,18.46,16.77,18.57,17.17,18.71Zm4.23,20H31.7a.52.52,0,0,0,.55-.52.5.5,0,0,0-.54-.49H11.2c-.45,0-.68.17-.69.5s.24.51.68.51H21.4ZM20,31.66l-.21.18a2.21,2.21,0,0,0-.11,2.94,4,4,0,0,1,.94,1.88c0,.06.1.16.16.16h1.4a4.08,4.08,0,0,1,1-2.06A2.2,2.2,0,0,0,23,31.83c-.05,0-.11-.08-.2-.15,0,.55,0,1.06,0,1.56a1,1,0,0,1-1,1h-.59a1.06,1.06,0,0,1-1.2-1.2ZM19.41,26l-.1,1.42h4.15L23.36,26A5.29,5.29,0,0,1,19.41,26ZM31.88,36.82A7.45,7.45,0,0,0,31,32.4l-.23,4.42ZM26.61,20.94h.55a.47.47,0,0,0,.49-.42c0-.64,0-1.28,0-1.85l-.93.58a.25.25,0,0,0-.11.17C26.61,19.92,26.61,20.41,26.61,20.94Zm-10.46,0c0-.52,0-1,0-1.53a.22.22,0,0,0-.1-.15l-.92-.57c0,.58,0,1.22,0,1.85,0,.24.21.37.44.4A5.6,5.6,0,0,0,16.15,20.93Zm11.5.84-1.06.07-.23,1.07C27.31,23,27.72,22.61,27.65,21.77Zm-3.53,1.84h0c.18,0,.37,0,.55,0s.35-.12.34-.33a.3.3,0,0,0-.34-.31H23.62a.3.3,0,0,0-.34.32.3.3,0,0,0,.32.31A4.47,4.47,0,0,0,24.12,23.61Z"/><path class="cls-5" d="M34.19,14.76H31.41a1.77,1.77,0,0,1-.32,0,.38.38,0,0,1-.32-.39.39.39,0,0,1,.31-.44,1.31,1.31,0,0,1,.34,0H37c.48,0,.69.14.68.45s-.2.43-.69.43Z"/><path class="cls-6" d="M35.3,12.7H33.46c-.33,0-.53-.17-.53-.44s.2-.43.53-.43h3.65c.34,0,.53.17.52.45s-.18.42-.51.42Z"/><path class="cls-7" d="M31.43,12.69c-.47,0-.67-.13-.67-.44s.21-.43.69-.43h.24a.45.45,0,0,1,.41.45.43.43,0,0,1-.43.42Z"/></g></g></svg>