<svg xmlns="http://www.w3.org/2000/svg" xmlns:xlink="http://www.w3.org/1999/xlink" viewBox="0 0 49.24 49.24"><defs><style>.cls-1{fill:url(#linear-gradient);}.cls-2{fill:url(#linear-gradient-2);}.cls-3{fill:url(#linear-gradient-3);}</style><linearGradient id="linear-gradient" x1="24.62" y1="-16378.44" x2="24.62" y2="-16240.47" gradientTransform="matrix(0.58, 0.82, 0.82, -0.58, 13347.91, -9449.34)" gradientUnits="userSpaceOnUse"><stop offset="0" stop-color="#e1e6ea"/><stop offset="0.34" stop-color="#dee4e7"/><stop offset="0.6" stop-color="#d4dddd"/><stop offset="0.84" stop-color="#c5d1cc"/><stop offset="1" stop-color="#b6c6bd"/></linearGradient><linearGradient id="linear-gradient-2" x1="17.66" y1="12.58" x2="39.66" y2="37.08" gradientUnits="userSpaceOnUse"><stop offset="0" stop-color="#4a54eb"/><stop offset="0.56" stop-color="#a839f6"/><stop offset="1" stop-color="#f522ff"/></linearGradient><linearGradient id="linear-gradient-3" x1="17.61" y1="12.62" x2="39.61" y2="37.12" xlink:href="#linear-gradient-2"/></defs><title>tag_icon@2x</title><g id="Layer_2" data-name="Layer 2"><g id="Layer_1-2" data-name="Layer 1"><circle class="cls-1" cx="24.62" cy="24.62" r="24.62" transform="translate(-9.7 30.47) rotate(-54.67)"/><path class="cls-2" d="M34.27,11.63c.71-.81,1-1.43,1.7-3.62l.55.05.57.08a8.76,8.76,0,0,1-2,4.34c.09.11.18.2.27.3L39,16.56a5.24,5.24,0,0,1,1.53,3.8c0,5.94,0,11.87,0,17.8a2.88,2.88,0,0,1-3.09,3.07H27a3.1,3.1,0,0,1-1.76-.49.48.48,0,0,0-.19-.09,4.28,4.28,0,0,1-1.77-.72l-8.6-5a3.13,3.13,0,0,1-1.54-1.74,1,1,0,0,0-.25-.34c-1-1.06-2.11-2.11-3.16-3.16a2.86,2.86,0,0,1,0-4.33q6.3-6.3,12.58-12.59a5.26,5.26,0,0,1,3.84-1.62c1.48,0,3,0,4.46-.08a1.42,1.42,0,0,0,.46-.06A2.85,2.85,0,0,1,34.27,11.63Zm-.85.78a1.64,1.64,0,0,0-2.36,0c-1.65,1.68-3.28,3.39-4.91,5.09a3.87,3.87,0,0,0-1.06,2.76q0,9,0,18a1.7,1.7,0,0,0,1.79,1.8H37.6a1.7,1.7,0,0,0,1.78-1.78V20.23a4,4,0,0,0-1.14-2.84l-.64-.67-3.33-3.46c-.4.31-.86.48-1.1,1a1.06,1.06,0,0,1-1.5.33,1.15,1.15,0,0,1-.43-1.5,1.1,1.1,0,0,1,1.46-.51A.51.51,0,0,0,33.42,12.41Zm-4.7.76,0-.06-2.77.79a4.08,4.08,0,0,0-2.52,2q-4.49,7.77-9,15.55a1.73,1.73,0,0,0,.68,2.5l8.63,5a1.29,1.29,0,0,0,.22.1V37.6c0-5.68,0-11.37,0-17a5.61,5.61,0,0,1,1.69-4.17C26.67,15.33,27.69,14.24,28.72,13.17ZM13.08,31.5c.17-.32.3-.59.45-.84q4.4-7.6,8.79-15.21a5.39,5.39,0,0,1,3.45-2.68c.42-.1.83-.24,1.24-.36a4.41,4.41,0,0,0-4.21,1.52q-5.34,5.33-10.66,10.66c-.6.6-1.21,1.19-1.79,1.8a1.65,1.65,0,0,0-.1,2.25C11.16,29.61,12.12,30.53,13.08,31.5Z"/><path class="cls-3" d="M31.93,32.07V29.81a2.39,2.39,0,0,1-2-1,2.31,2.31,0,0,1-.42-1.59,2.35,2.35,0,0,1,2.43-2.06V23.85h1.14v1.33c1.61.23,2.46,1,2.44,2.3H34.44c-.24-.82-.59-1.12-1.32-1.1v2.25a2.39,2.39,0,0,1,2,1,2.3,2.3,0,0,1-2,3.64V34.6H32V33.26c-1.6-.23-2.46-1-2.43-2.3H30.6C30.83,31.78,31.19,32.09,31.93,32.07Zm0-5.7a1.14,1.14,0,0,0-1.16.6,1.06,1.06,0,0,0,.08,1.2,1.08,1.08,0,0,0,1.08.46Zm1.16,5.7a1.11,1.11,0,0,0,1.17-.62,1.06,1.06,0,0,0-.09-1.18,1.11,1.11,0,0,0-1.08-.46Z"/></g></g></svg>