<svg xmlns="http://www.w3.org/2000/svg" xmlns:xlink="http://www.w3.org/1999/xlink" viewBox="0 0 49.24 49.24"><defs><style>.cls-1{fill:url(#linear-gradient);}.cls-2{fill:url(#linear-gradient-2);}.cls-3{fill:url(#linear-gradient-3);}.cls-4{fill:url(#linear-gradient-4);}.cls-5{fill:url(#linear-gradient-5);}.cls-6{fill:url(#linear-gradient-6);}</style><linearGradient id="linear-gradient" x1="35.58" y1="-5.57" x2="35.58" y2="132.4" gradientTransform="matrix(-0.92, -0.4, -0.4, 0.92, 67.08, 16.31)" gradientUnits="userSpaceOnUse"><stop offset="0" stop-color="#e1e6ea"/><stop offset="0.34" stop-color="#dee4e7"/><stop offset="0.6" stop-color="#d4dddd"/><stop offset="0.84" stop-color="#c5d1cc"/><stop offset="1" stop-color="#b6c6bd"/></linearGradient><linearGradient id="linear-gradient-2" x1="38.21" y1="39.08" x2="11.21" y2="10.24" gradientUnits="userSpaceOnUse"><stop offset="0" stop-color="#bdf7a3"/><stop offset="1" stop-color="#009ee0"/></linearGradient><linearGradient id="linear-gradient-3" x1="38.21" y1="39.07" x2="11.21" y2="10.24" xlink:href="#linear-gradient-2"/><linearGradient id="linear-gradient-4" x1="44.06" y1="33.6" x2="17.06" y2="4.77" xlink:href="#linear-gradient-2"/><linearGradient id="linear-gradient-5" x1="32.35" y1="44.56" x2="5.35" y2="15.73" xlink:href="#linear-gradient-2"/><linearGradient id="linear-gradient-6" x1="38.5" y1="38.8" x2="11.5" y2="9.97" xlink:href="#linear-gradient-2"/></defs><title>tool@2x</title><g id="Layer_2" data-name="Layer 2"><g id="Layer_1-2" data-name="Layer 1"><circle class="cls-1" cx="24.62" cy="24.62" r="24.62" transform="translate(-7.8 11.92) rotate(-23.61)"/><path class="cls-2" d="M40.56,37.8a4.38,4.38,0,0,1-1.07,1.76,3.73,3.73,0,0,1-5.38-.2l-7.49-8.14L26.4,31a6.25,6.25,0,0,1-.93.42c-.1,0-.29-.09-.39-.2-.3-.3-.21-.57.39-1.23l-.82-.9-.19.17-3.3,3.3A.46.46,0,0,0,21,33a6.22,6.22,0,0,1-6.49,7.55A7.67,7.67,0,0,1,13,40.3a.62.62,0,0,1-.29-1.1c.77-.78,1.54-1.55,2.33-2.31a.93.93,0,0,0,.25-.56,1.55,1.55,0,0,0-.67-1.58l-.07-.06A1.55,1.55,0,0,0,12.87,34a.83.83,0,0,0-.43.18c-.77.76-1.52,1.53-2.29,2.3-.49.5-1,.36-1.2-.32a6.25,6.25,0,0,1,7.37-7.89.46.46,0,0,0,.33-.06c1.49-1.48,3-3,4.46-4.46l-.21-.23q-3.6-3.61-7.21-7.24a.69.69,0,0,0-.54-.23c-.39,0-.77,0-1.16,0a.64.64,0,0,1-.59-.33L8.81,11.4a.61.61,0,0,1,0-.8c.59-.61,1.19-1.2,1.78-1.79.08-.07.17-.12.25-.18h.38s0,0,0,0l4.41,2.63a.76.76,0,0,1,.41.71c0,.36,0,.71,0,1.06a.71.71,0,0,0,.23.58c2.41,2.39,4.8,4.8,7.2,7.2a1.84,1.84,0,0,1,.17.25l.14-.09,4.38-4.39a.48.48,0,0,0,.08-.39,6.34,6.34,0,0,1-.1-2.13,6.1,6.1,0,0,1,3.6-4.89,12.77,12.77,0,0,1,2.08-.59H35c.4.09.81.17,1.21.28.67.19.8.69.3,1.2-.74.76-1.5,1.52-2.24,2.29a.93.93,0,0,0-.19.43,1.61,1.61,0,0,0,.69,1.72.08.08,0,0,1,0,0,1.49,1.49,0,0,0,1.57.67.83.83,0,0,0,.54-.23c.76-.78,1.53-1.56,2.3-2.32a.63.63,0,0,1,1.13.29c.07.22.13.45.2.68v2.43c-.05.14-.09.27-.13.41A6.27,6.27,0,0,1,33,21a.42.42,0,0,0-.44.13c-1.09,1.11-2.2,2.21-3.3,3.31l-.2.21.89.82c.74-.59,1-.65,1.28-.36s.23.53-.32,1.24l.25.23q3.86,3.56,7.73,7.09a5.07,5.07,0,0,1,1.63,2.3ZM34.9,10a3.77,3.77,0,0,0-1.77.09,5,5,0,0,0-3.51,6.22.93.93,0,0,1-.27,1q-6,6-12,12a.93.93,0,0,1-1,.27,5,5,0,0,0-6,2.93A4.64,4.64,0,0,0,10,34.84s.07,0,.08,0c.59-.58,1.18-1.17,1.76-1.76a.9.9,0,0,1,.72-.3H14a.88.88,0,0,1,.69.28l1.57,1.57a1,1,0,0,1,.3.75c0,.46,0,.91,0,1.37a1,1,0,0,1-.32.78c-.52.49-1,1-1.53,1.51l-.28.29a4.71,4.71,0,0,0,2.89-.55A5,5,0,0,0,19.71,33a.88.88,0,0,1,.23-1L32,19.9a.86.86,0,0,1,.95-.24,5,5,0,0,0,6-2.78,4.7,4.7,0,0,0,.38-2.49c-.62.61-1.23,1.19-1.82,1.79a1,1,0,0,1-.77.32c-.48,0-1,0-1.43,0a.86.86,0,0,1-.69-.29c-.51-.53-1-1.05-1.53-1.6a1.21,1.21,0,0,1-.27-.66c0-.49,0-1,0-1.47a1,1,0,0,1,.3-.72l1.55-1.57ZM27.25,30l0,.05q3.9,4.23,7.79,8.45a2.48,2.48,0,0,0,3.61.06A2.51,2.51,0,0,0,38.56,35l-8.24-7.56-.25-.21ZM22.9,22c-.11-.1-.2-.16-.28-.24L15.23,14.3a1.07,1.07,0,0,1-.37-.88,7.21,7.21,0,0,0,0-.93.55.55,0,0,0-.19-.34c-.48-.31-1-.59-1.47-.88L11.14,10c-.29.31-.57.62-.87.9a.28.28,0,0,0,0,.42c.5.83,1,1.66,1.49,2.48.19.32.31.77.6.92a2.35,2.35,0,0,0,1.13.06,1.15,1.15,0,0,1,.91.38c2.45,2.47,4.92,4.94,7.38,7.41a1.09,1.09,0,0,1,.18.31Zm6.21,4.37-.86-.79-2.69,2.69.79.85Z"/><path class="cls-3" d="M20.88,29.14c-.59,0-.88-.5-.65-.91a1.26,1.26,0,0,1,.25-.31L28,20.43a1.38,1.38,0,0,1,.26-.22.61.61,0,0,1,.84.85,1.38,1.38,0,0,1-.22.26L21.36,28.8A2.93,2.93,0,0,1,20.88,29.14Z"/><path class="cls-4" d="M30.33,18.33a.63.63,0,0,1,.63.6.62.62,0,1,1-.63-.6Z"/><path class="cls-5" d="M19,29.68a.61.61,0,0,1,.63.59.61.61,0,0,1-.62.63.62.62,0,0,1-.62-.6A.63.63,0,0,1,19,29.68Z"/><path class="cls-6" d="M37.08,36.29c0,.6-.51.89-.92.65a1.79,1.79,0,0,1-.31-.25l-5.27-5.25c-.42-.42-.48-.79-.18-1.08s.66-.21,1.06.18l5.28,5.28A2.93,2.93,0,0,1,37.08,36.29Z"/></g></g></svg>