<svg xmlns="http://www.w3.org/2000/svg" xmlns:xlink="http://www.w3.org/1999/xlink" viewBox="0 0 49.24 49.24"><defs><style>.cls-1{fill:url(#linear-gradient);}.cls-2{fill:url(#linear-gradient-2);}.cls-3{fill:url(#linear-gradient-3);}</style><linearGradient id="linear-gradient" x1="35.58" y1="-5.57" x2="35.58" y2="132.4" gradientTransform="matrix(-0.92, -0.4, -0.4, 0.92, 67.08, 16.31)" gradientUnits="userSpaceOnUse"><stop offset="0" stop-color="#e1e6ea"/><stop offset="0.34" stop-color="#dee4e7"/><stop offset="0.6" stop-color="#d4dddd"/><stop offset="0.84" stop-color="#c5d1cc"/><stop offset="1" stop-color="#b6c6bd"/></linearGradient><linearGradient id="linear-gradient-2" x1="28.67" y1="34.64" x2="19.51" y2="15.14" gradientUnits="userSpaceOnUse"><stop offset="0" stop-color="#3e33f2"/><stop offset="1" stop-color="#00d7e0"/></linearGradient><linearGradient id="linear-gradient-3" x1="39.25" y1="29.67" x2="30.09" y2="10.17" xlink:href="#linear-gradient-2"/></defs><title>tracking_icon@2x</title><g id="Layer_2" data-name="Layer 2"><g id="Layer_1-2" data-name="Layer 1"><circle class="cls-1" cx="24.62" cy="24.62" r="24.62" transform="translate(-7.8 11.92) rotate(-23.61)"/><path class="cls-2" d="M39.44,17.21c-.08.41-.13.82-.24,1.21a6.07,6.07,0,0,1-2.43,3.45,2.67,2.67,0,0,0-.82.95c-.6,1.05-1.18,2.1-1.79,3.14a4,4,0,0,1-.6.64l-.19.17-3.48,3.35a.36.36,0,0,0-.11.45A2.63,2.63,0,0,1,26.4,33.9a2.52,2.52,0,0,1-1.73-2.19c0-.21,0-.42,0-.63a.44.44,0,0,0-.15-.3l-4-2.37-.07,0a2.74,2.74,0,0,1-3.68,1.37l-2.72,4.11a7.31,7.31,0,0,1,.83,1.31,2.5,2.5,0,0,1-.55,2.73,2.46,2.46,0,0,1-2.62.71,2.55,2.55,0,0,1-1.89-2.09,1,1,0,0,0,0-.16v-.64a3.12,3.12,0,0,1,.71-1.43A2.65,2.65,0,0,1,13,33.5a.34.34,0,0,0,.28-.1c.93-1.39,1.86-2.79,2.73-4.12a9.18,9.18,0,0,1-.57-1.38,2.62,2.62,0,0,1,2.86-3.13,2.67,2.67,0,0,1,2.35,2.4.38.38,0,0,0,.12.26L25,30c1.3-1.47,2.37-1.59,4.13-.47l3.27-3.15q-1.12-2-2.26-3.91a1.57,1.57,0,0,0-.47-.49,6.26,6.26,0,1,1,9.66-6.08,2.29,2.29,0,0,0,.07.28Zm-6.26,8.67.35-.56c.53-.94,1.07-1.87,1.58-2.82a4.37,4.37,0,0,1,1.29-1.45,5.36,5.36,0,0,0-6.26-8.69A5.29,5.29,0,0,0,28,18.31a5.12,5.12,0,0,0,2,2.77,4,4,0,0,1,1.23,1.39c.51,1,1.06,1.9,1.6,2.85C32.93,25.48,33,25.64,33.18,25.88ZM18,29.09a1.68,1.68,0,0,0,1.73-1.67A1.71,1.71,0,1,0,18,29.09Zm7.61,2.32a1.71,1.71,0,1,0,1.81-1.7A1.72,1.72,0,0,0,25.58,31.41Zm-13.13,3a1.71,1.71,0,0,0-1.71,1.71,1.71,1.71,0,1,0,3.41,0A1.7,1.7,0,0,0,12.45,34.39Z"/><path class="cls-3" d="M33.18,21.15a4.43,4.43,0,0,1-4.25-3.47,4.38,4.38,0,0,1,2.44-4.88,4.31,4.31,0,0,1,5.28,1.34,4.26,4.26,0,0,1,.58,4.2.48.48,0,0,1-.62.36.47.47,0,0,1-.25-.67,3.5,3.5,0,0,0-.1-2.75,3.42,3.42,0,1,0-1,4.15l.11-.08a.48.48,0,0,1,.7,0,.47.47,0,0,1-.12.68,4.1,4.1,0,0,1-1.56.85C34,21,33.6,21.07,33.18,21.15Z"/></g></g></svg>