<svg xmlns="http://www.w3.org/2000/svg" xmlns:xlink="http://www.w3.org/1999/xlink" viewBox="0 0 49.24 49.24"><defs><style>.cls-1{fill:url(#linear-gradient);}.cls-2{fill:url(#linear-gradient-2);}.cls-3{fill:url(#linear-gradient-3);}.cls-4{fill:url(#linear-gradient-4);}.cls-5{fill:url(#linear-gradient-5);}.cls-6{fill:url(#linear-gradient-6);}.cls-7{fill:url(#linear-gradient-7);}.cls-8{fill:url(#linear-gradient-8);}.cls-9{fill:url(#linear-gradient-9);}.cls-10{fill:url(#linear-gradient-10);}.cls-11{fill:url(#linear-gradient-11);}.cls-12{fill:url(#linear-gradient-12);}</style><linearGradient id="linear-gradient" x1="35.58" y1="-5.57" x2="35.58" y2="132.4" gradientTransform="matrix(-0.92, -0.4, -0.4, 0.92, 67.08, 16.31)" gradientUnits="userSpaceOnUse"><stop offset="0" stop-color="#e1e6ea"/><stop offset="0.34" stop-color="#dee4e7"/><stop offset="0.6" stop-color="#d4dddd"/><stop offset="0.84" stop-color="#c5d1cc"/><stop offset="1" stop-color="#b6c6bd"/></linearGradient><linearGradient id="linear-gradient-2" x1="37.76" y1="39.6" x2="9.43" y2="11.43" gradientUnits="userSpaceOnUse"><stop offset="0" stop-color="#3e33f2"/><stop offset="1" stop-color="#00d7e0"/></linearGradient><linearGradient id="linear-gradient-3" x1="41.15" y1="36.19" x2="12.82" y2="8.02" xlink:href="#linear-gradient-2"/><linearGradient id="linear-gradient-4" x1="39.46" y1="37.89" x2="11.13" y2="9.72" xlink:href="#linear-gradient-2"/><linearGradient id="linear-gradient-5" x1="27.36" y1="50.06" x2="-0.97" y2="21.9" xlink:href="#linear-gradient-2"/><linearGradient id="linear-gradient-6" x1="32.56" y1="44.84" x2="4.22" y2="16.67" xlink:href="#linear-gradient-2"/><linearGradient id="linear-gradient-7" x1="35.92" y1="41.45" x2="7.59" y2="13.28" xlink:href="#linear-gradient-2"/><linearGradient id="linear-gradient-8" x1="42.84" y1="34.49" x2="14.51" y2="6.32" xlink:href="#linear-gradient-2"/><linearGradient id="linear-gradient-9" x1="41.13" y1="36.21" x2="12.8" y2="8.05" xlink:href="#linear-gradient-2"/><linearGradient id="linear-gradient-10" x1="30.72" y1="46.69" x2="2.39" y2="18.52" xlink:href="#linear-gradient-2"/><linearGradient id="linear-gradient-11" x1="33.82" y1="43.57" x2="5.49" y2="15.4" xlink:href="#linear-gradient-2"/><linearGradient id="linear-gradient-12" x1="39.02" y1="38.33" x2="10.69" y2="10.17" xlink:href="#linear-gradient-2"/></defs><title>training_icon@2x</title><g id="Layer_2" data-name="Layer 2"><g id="Layer_1-2" data-name="Layer 1"><circle class="cls-1" cx="24.62" cy="24.62" r="24.62" transform="translate(-7.8 11.92) rotate(-23.61)"/><path class="cls-2" d="M39.78,37.65a4.36,4.36,0,0,1-.23.6,1.84,1.84,0,0,1-1.68,1c-1.85,0-3.7,0-5.56,0a1.93,1.93,0,0,1-1.9-2A3.73,3.73,0,0,1,33.3,33.6a6,6,0,0,1,4.22.25,3.62,3.62,0,0,1,2.21,2.9.69.69,0,0,0,.05.13Zm-4.69.71h2.7a1,1,0,0,0,1.05-1.07,2.74,2.74,0,0,0-1.62-2.55,5,5,0,0,0-3.35-.32,2.86,2.86,0,0,0-2.52,2.76,1,1,0,0,0,1.14,1.18Z"/><path class="cls-3" d="M24.64,9.93H36.75A2.08,2.08,0,0,1,39,12.2c0,5.07,0,10.14,0,15.22a3.8,3.8,0,0,1-.2,1.09.44.44,0,0,1-.62.28c-.25-.1-.32-.35-.24-.65a2.47,2.47,0,0,0,.13-.71q0-7.63,0-15.26a1.15,1.15,0,0,0-1.31-1.3H12.45a1.86,1.86,0,0,0-.52.07,1,1,0,0,0-.77,1v15.6a1.89,1.89,0,0,0,.13.57.47.47,0,0,1-.2.63.44.44,0,0,1-.64-.23,3.72,3.72,0,0,1-.22-1c0-1.92,0-3.85,0-5.77,0-3.22,0-6.44,0-9.66a2.12,2.12,0,0,1,2.17-2.15Z"/><path class="cls-4" d="M24.53,21.67,26.1,20.1c.31-.31.41-.32.82-.15a3.72,3.72,0,0,1,2.38,3.58,2,2,0,0,1-1.95,2c-1.76,0-3.51,0-5.27,0A2,2,0,0,1,20,23.12a3.75,3.75,0,0,1,2.49-3.18.53.53,0,0,1,.64.16Zm.06,2.9h2.72a1,1,0,0,0,1.05-1.08A2.73,2.73,0,0,0,26.94,21a.3.3,0,0,0-.47.06c-.46.48-.95,1-1.42,1.42s-.53.32-.86,0c-.48-.47-1-.93-1.44-1.41a.29.29,0,0,0-.4-.07,2.72,2.72,0,0,0-1.47,2.38A1,1,0,0,0,22,24.57Z"/><path class="cls-5" d="M14.13,39.3c-.87,0-1.73,0-2.6,0a2,2,0,0,1-2.07-2.13A3.63,3.63,0,0,1,12,33.74a5.87,5.87,0,0,1,4.63.12,3.59,3.59,0,0,1,2.23,3.44,1.93,1.93,0,0,1-1.93,2c-.92,0-1.84,0-2.76,0Zm0-.93h2.67a1,1,0,0,0,1.08-1.12,2.71,2.71,0,0,0-1.64-2.51,4.92,4.92,0,0,0-4.24,0,2.6,2.6,0,0,0-1.61,2.45,1.06,1.06,0,0,0,1.14,1.17Z"/><path class="cls-6" d="M24.62,39.3c-.84,0-1.68,0-2.52,0A2,2,0,0,1,20,36.81a3.71,3.71,0,0,1,2.84-3.2,6,6,0,0,1,4.28.25,3.7,3.7,0,0,1,2.21,3.63,1.94,1.94,0,0,1-1.95,1.81H24.62Zm0-.93h2.67a1,1,0,0,0,1.08-1.12,2.65,2.65,0,0,0-1.58-2.48,4.93,4.93,0,0,0-4.35,0,2.63,2.63,0,0,0-1.55,2.44A1,1,0,0,0,22,38.36Z"/><path class="cls-7" d="M24.63,32.62a2.41,2.41,0,1,1,0-4.81,2.41,2.41,0,1,1,0,4.81Zm0-.94a1.47,1.47,0,1,0-1.46-1.48A1.47,1.47,0,0,0,24.6,31.68Z"/><path class="cls-8" d="M24.58,18.78A2.41,2.41,0,1,1,27,16.41,2.42,2.42,0,0,1,24.58,18.78Zm.05-3.88a1.47,1.47,0,0,0-1.49,1.45,1.48,1.48,0,1,0,2.95,0A1.47,1.47,0,0,0,24.63,14.9Z"/><path class="cls-9" d="M35.08,27.81a2.41,2.41,0,1,1-2.4,2.41A2.4,2.4,0,0,1,35.08,27.81Zm0,3.87a1.47,1.47,0,1,0,0-2.94,1.47,1.47,0,1,0,0,2.94Z"/><path class="cls-10" d="M14.13,27.81a2.41,2.41,0,1,1-2.39,2.41A2.41,2.41,0,0,1,14.13,27.81Zm0,3.87a1.47,1.47,0,1,0-1.48-1.46A1.46,1.46,0,0,0,14.15,31.68Z"/><path class="cls-11" d="M19.39,28.75H20.9c.34,0,.53.18.53.47s-.19.46-.53.46c-1,0-2,0-3,0-.36,0-.56-.19-.55-.48s.21-.44.55-.45Z"/><path class="cls-12" d="M29.86,28.75h1.51c.34,0,.53.18.53.46s-.19.47-.52.47c-1,0-2,0-3.05,0-.34,0-.53-.19-.52-.47s.19-.45.54-.46Z"/></g></g></svg>