<svg xmlns="http://www.w3.org/2000/svg" xmlns:xlink="http://www.w3.org/1999/xlink" viewBox="0 0 49.24 49.24"><defs><style>.cls-1{fill:url(#linear-gradient);}.cls-2{fill:url(#linear-gradient-2);}.cls-3{fill:url(#linear-gradient-3);}.cls-4{fill:url(#linear-gradient-4);}.cls-5{fill:url(#linear-gradient-5);}.cls-6{fill:url(#linear-gradient-6);}.cls-7{fill:url(#linear-gradient-7);}.cls-8{fill:url(#linear-gradient-8);}</style><linearGradient id="linear-gradient" x1="24.62" y1="-16378.44" x2="24.62" y2="-16240.47" gradientTransform="matrix(0.58, 0.82, 0.82, -0.58, 13347.91, -9449.34)" gradientUnits="userSpaceOnUse"><stop offset="0" stop-color="#e1e6ea"/><stop offset="0.34" stop-color="#dee4e7"/><stop offset="0.6" stop-color="#d4dddd"/><stop offset="0.84" stop-color="#c5d1cc"/><stop offset="1" stop-color="#b6c6bd"/></linearGradient><linearGradient id="linear-gradient-2" x1="35.54" y1="40.6" x2="12.87" y2="16.94" gradientUnits="userSpaceOnUse"><stop offset="0" stop-color="#4a54eb"/><stop offset="0.56" stop-color="#a839f6"/><stop offset="1" stop-color="#f522ff"/></linearGradient><linearGradient id="linear-gradient-3" x1="40.02" y1="36.31" x2="17.35" y2="12.65" xlink:href="#linear-gradient-2"/><linearGradient id="linear-gradient-4" x1="25.61" y1="50.11" x2="2.95" y2="26.44" xlink:href="#linear-gradient-2"/><linearGradient id="linear-gradient-5" x1="35.55" y1="40.59" x2="12.88" y2="16.93" xlink:href="#linear-gradient-2"/><linearGradient id="linear-gradient-6" x1="29.74" y1="46.15" x2="7.07" y2="22.49" xlink:href="#linear-gradient-2"/><linearGradient id="linear-gradient-7" x1="40.61" y1="35.75" x2="17.94" y2="12.08" xlink:href="#linear-gradient-2"/><linearGradient id="linear-gradient-8" x1="43.85" y1="32.64" x2="21.19" y2="8.97" xlink:href="#linear-gradient-2"/></defs><title>users@2x</title><g id="Layer_2" data-name="Layer 2"><g id="Layer_1-2" data-name="Layer 1"><circle class="cls-1" cx="24.62" cy="24.62" r="24.62" transform="translate(-9.7 30.47) rotate(-54.67)"/><path class="cls-2" d="M40.77,36.18c-.16.2-.33.38-.63.27s-.31-.36-.31-.63V32.29a1.11,1.11,0,0,0-.93-1.24c-.6-.18-1.2-.36-1.81-.52a.41.41,0,0,0-.32.09,11.16,11.16,0,0,0-.91.91.61.61,0,0,0-.13.39c0,1.26,0,2.53,0,3.79v.22c0,.34-.2.56-.48.55s-.46-.21-.47-.56c0-1.32,0-2.65,0-4a.59.59,0,0,0-.21-.5c-.22-.2-.43-.42-.65-.64-.37-.37-.37-.37-.91-.15a3.34,3.34,0,0,1,.7,2.63c0,.82,0,1.64,0,2.46a2.09,2.09,0,0,1,0,.25.48.48,0,0,1-.48.48.47.47,0,0,1-.46-.5c0-.49,0-1,0-1.48v-2a1.55,1.55,0,0,0-1-1.54c-1-.38-2-.73-3-1.11l-1,1.43c-.11.17-.22.34-.34.5a1,1,0,0,1-1.48.13c-.25-.22-.47-.47-.76-.78,0,.21,0,.31,0,.42,0,1.42,0,2.84,0,4.26,0,.48-.15.72-.47.72s-.47-.23-.47-.71V31.18L24,31.1c-.19.23-.37.47-.58.68a1,1,0,0,1-1.65-.16l-1.23-1.83c-1.08.4-2.16.77-3.21,1.21a1.46,1.46,0,0,0-.87,1.49c0,1.09,0,2.18,0,3.28a1.61,1.61,0,0,1,0,.31.43.43,0,0,1-.42.4.42.42,0,0,1-.47-.34,1.27,1.27,0,0,1,0-.34c0-1.09,0-2.19,0-3.28a12.11,12.11,0,0,1,.26-1.5c-.36-.27-.36-.27-.74.1a2,2,0,0,1-2.6.45,4.57,4.57,0,0,1-.72-.61.3.3,0,0,0-.41-.06c-.41.22-.84.43-1.26.64a1.13,1.13,0,0,0-.68,1.11c0,1,0,2.08,0,3.12a2.09,2.09,0,0,1,0,.25.49.49,0,0,1-.47.47A.48.48,0,0,1,8.48,36c0-.3,0-.59,0-.88V32.61a2,2,0,0,1,1.16-1.9l1.16-.59c-.35-.22-.69-.43-1-.65a3.32,3.32,0,0,1-.43-.41,1,1,0,0,1-.24-1.13,11.54,11.54,0,0,0,.3-2c.08-.77.06-1.55.21-2.29A4,4,0,0,1,13,20.4a3.92,3.92,0,0,1,4.3,2.87,11.5,11.5,0,0,1,.27,2.05c.08.71.12,1.42.2,2.13a2.42,2.42,0,0,0,.17.64.72.72,0,0,1-.13.81,4.47,4.47,0,0,1-1.59,1.19.57.57,0,0,0,.7.09c.93-.39,1.88-.72,2.83-1.07a.84.84,0,0,0,.47-.39,8.32,8.32,0,0,1,.73-.86,1.32,1.32,0,0,0,.18-.44s0-.06,0-.09a2.28,2.28,0,0,0-.7-2,5.13,5.13,0,0,1-1.32-3.65,8.61,8.61,0,0,0-.31-2,6.47,6.47,0,0,1,.27-4.38,4.21,4.21,0,0,1,3.83-2.52c2.4-.08,4.81,0,7.22,0a.49.49,0,0,1,.56.54c0,1.84,0,3.68-.05,5.52a4,4,0,0,1-.27,1.26,3.09,3.09,0,0,0-.19,1.17,5.55,5.55,0,0,1-.63,3.1A18.65,18.65,0,0,1,28.32,26a2.54,2.54,0,0,0-.18.41s0,.06,0,.09a2,2,0,0,0,.79,2.06.16.16,0,0,1,.07.07c.11.47.54.52.9.65l1.66.61a.87.87,0,0,0,.69,0c.14-.05.29-.08.43-.12.62-.18.67-.25.57-.89a.4.4,0,0,0-.14-.22,3.65,3.65,0,0,1-1.37-3,2.52,2.52,0,0,0-.25-1.17,2.92,2.92,0,0,1,2.4-4.07c1.6-.08,3.21,0,4.82-.05.33,0,.54.17.54.46,0,1,0,2,0,3a1.54,1.54,0,0,1-.21.69,2.33,2.33,0,0,0-.24,1.21,3.49,3.49,0,0,1-1.36,3c-.29.22-.13.52-.13.79,0,.08.22.19.35.24.52.16,1,.3,1.57.45a2,2,0,0,1,1.54,1.54.56.56,0,0,0,.05.08ZM29.69,13.74l-.08,0c-2.24,0-4.48,0-6.72,0a3.43,3.43,0,0,0-3.24,2.71,6,6,0,0,0,.14,3.27A5.07,5.07,0,0,1,20,21.48a5.17,5.17,0,0,0,.47,2.29,4.56,4.56,0,0,0,4.65,2.63A4.49,4.49,0,0,0,29,23a16.66,16.66,0,0,0,.18-2.25,4.8,4.8,0,0,1,.12-.64,8.34,8.34,0,0,0,.35-1.52c0-1.6,0-3.2,0-4.8C29.72,13.79,29.7,13.77,29.69,13.74Zm8.62,7.58-.18,0H34.31a2.6,2.6,0,0,0-.56.06,2,2,0,0,0-1.33,2.87,2.3,2.3,0,0,1,.27,1.18,5,5,0,0,0,.15,1.21,2.52,2.52,0,0,0,4.64.5,2.83,2.83,0,0,0,.32-1.51,2.63,2.63,0,0,1,.28-1.43,2.06,2.06,0,0,0,.22-.85C38.33,22.68,38.31,22,38.31,21.32Zm-21.73,4a4,4,0,0,0-.88-3,3,3,0,0,0-4-.35,4,4,0,0,0-1.26,3.43c.46.15.49.19.54.66l0,.16a2.55,2.55,0,0,0,4.91.61.88.88,0,0,0-.1-1,3.82,3.82,0,0,0-2.43-1.42.91.91,0,0,0-1.09.35A1.9,1.9,0,0,1,12,25a.5.5,0,0,1-.71.07.5.5,0,0,1,0-.73c.23-.24.47-.48.69-.73a.69.69,0,0,1,.62-.23A5,5,0,0,1,16.58,25.32Zm5.48,1.42c0,.28,0,.5,0,.72a.29.29,0,0,0,.12.23c.8.57,1.62,1.12,2.44,1.68.82-.56,1.63-1.11,2.43-1.67a.32.32,0,0,0,.13-.22c0-.23,0-.45,0-.72A5.62,5.62,0,0,1,22.06,26.74ZM25.42,30l1.19,1.2c.37-.55.75-1.13,1.14-1.7s.35-.52-.13-.94c0,0,0,0-.06,0Zm-2.77,1.2L23.84,30l-2.19-1.5c-.13.14-.25.26-.35.39a.28.28,0,0,0,0,.23C21.73,29.8,22.19,30.5,22.65,31.17ZM12.46,29.34c0,.49-.23,1.07.47,1.41a1.16,1.16,0,0,0,1.14,0c.68-.34.5-.92.44-1.41Zm22.78,1.49c.31-.32.55-.61.83-.86a.57.57,0,0,0,.21-.64h-2.1c0,.13,0,.36.09.48C34.55,30.15,34.89,30.46,35.24,30.83Zm-25-3.55c-.09.36-.17.66-.24,1a.36.36,0,0,0,.07.24,3.37,3.37,0,0,0,1.45.85c-.06-.25,0-.52-.15-.62A4.29,4.29,0,0,1,10.27,27.28Zm5.24,2a3.52,3.52,0,0,0,1.36-.81c.05-.06.12-.17.1-.24-.06-.31-.16-.62-.23-.88a10.24,10.24,0,0,1-1,1.13A.73.73,0,0,0,15.51,29.33Z"/><path class="cls-3" d="M38.75,34.5c0,.47,0,.93,0,1.39s-.18.59-.46.6-.48-.23-.48-.62V33.11c0-.38.17-.59.46-.59s.48.21.48.6S38.75,34,38.75,34.5Z"/><path class="cls-4" d="M11.44,34.82c0,.38,0,.76,0,1.14a.48.48,0,0,1-.46.53.49.49,0,0,1-.48-.53c0-.76,0-1.53,0-2.3a.48.48,0,0,1,.47-.52c.29,0,.47.2.47.55S11.44,34.44,11.44,34.82Z"/><path class="cls-5" d="M30.67,35c0,.29,0,.58,0,.88s-.19.59-.47.6-.47-.22-.47-.59q0-.9,0-1.8c0-.36.16-.56.44-.57s.49.2.5.56V35Z"/><path class="cls-6" d="M19.53,35v1a.47.47,0,0,1-.44.49A.45.45,0,0,1,18.6,36c0-.67,0-1.35,0-2a.47.47,0,1,1,.94,0c0,.32,0,.65,0,1Z"/><path class="cls-7" d="M21.56,18.2v1c0,.38-.18.58-.47.58s-.47-.2-.48-.58,0-.7,0-1a1,1,0,0,1,.82-.9,13.13,13.13,0,0,1,4.76.06,4.6,4.6,0,0,1,2.23,1.1.48.48,0,0,1,.08.7.44.44,0,0,1-.65,0,5,5,0,0,0-3.15-1.1A14,14,0,0,0,21.56,18.2Z"/><path class="cls-8" d="M37.23,23.75c0,.42-.28.67-.58.56a10.31,10.31,0,0,0-3-.49.43.43,0,0,1-.43-.45.44.44,0,0,1,.45-.47,8.13,8.13,0,0,1,3.17.52C37,23.49,37.15,23.68,37.23,23.75Z"/></g></g></svg>