<svg xmlns="http://www.w3.org/2000/svg" viewBox="0 0 75.18 78"><defs><style>.cls-1{fill:#068ff1;}</style></defs><title>user_mia_icon@2x</title><g id="Layer_2" data-name="Layer 2"><g id="Layer_1-2" data-name="Layer 1"><path class="cls-1" d="M47,48.06c-2-1.16-3.93-2.29-5.89-3.39a1,1,0,0,0-.68,0c-.17,0-.3.26-.47.3-1.11.26-1.13,1-1.13,2,0,7.09,0,14.18,0,21.27a1,1,0,0,0,.67,1.07A4.5,4.5,0,0,1,42,74.45a4.57,4.57,0,0,1-8.91,0,4.48,4.48,0,0,1,2.48-5.13,1,1,0,0,0,.69-1.14q0-10.92,0-21.83c0-.6-.09-1-.74-1.18a5.1,5.1,0,0,1-1.19-.73l-6.21,3.59A15,15,0,0,1,20.34,68a14.76,14.76,0,1,1,6.53-22.15L30,44c.88-.5,1.75-1,2.64-1.51.38-.21.42-.47.49-.88.22-1.37-.49-2-1.59-2.59-6.09-3.44-12.14-7-18.2-10.47l-.53-.28a4.72,4.72,0,0,1-4.32,1.07,4.57,4.57,0,0,1,1.45-9,4.47,4.47,0,0,1,4.22,4.51,1.73,1.73,0,0,0,1.06,1.83c6.18,3.51,12.33,7.08,18.47,10.65a1,1,0,0,0,1.41,0,6.19,6.19,0,0,1,1.19-.66V29.46a14.63,14.63,0,0,1-11-6.6A14.38,14.38,0,0,1,23,12.53a14.75,14.75,0,1,1,15.87,17v2.68c0,1.31,0,2.62,0,3.93,0,.42.19.58.5.86,1.15,1,2.07.5,3.16-.14q8.85-5.19,17.77-10.26A1.24,1.24,0,0,0,61,25.2a4.52,4.52,0,0,1,4.19-4.79,4.57,4.57,0,0,1,1.16,9.05,4.34,4.34,0,0,1-3.49-.81.75.75,0,0,0-1-.1q-9.67,5.62-19.37,11.19c-.4.23-.38.5-.46.89-.27,1.4.51,2,1.61,2.56,1.57.8,3.06,1.74,4.63,2.65a14.67,14.67,0,0,1,11.85-6.26,14.23,14.23,0,0,1,9.7,3.4A14.76,14.76,0,1,1,47,48.06Zm18.11,6.26c3.37.72,5.36,2.63,5.76,6.1a12.05,12.05,0,0,0-3.13-15.84A12.25,12.25,0,0,0,51,46.63c-3.91,4.8-3,11.27-1,13.66.38-3.42,2.45-5.26,5.73-6a9.57,9.57,0,0,1-1.5-5.4,6.2,6.2,0,0,1,12.4.1A9.86,9.86,0,0,1,65.12,54.32Zm-55.33.06a36,36,0,0,1-1.18-4.27,6,6,0,0,1,2.63-6.21,5.85,5.85,0,0,1,6.52-.28,6,6,0,0,1,3.16,6,10,10,0,0,1-1.51,4.79,6.81,6.81,0,0,1,4,2,6.39,6.39,0,0,1,1.74,4.1A12.06,12.06,0,0,0,22.1,44.63a12.19,12.19,0,0,0-16.79,2c-3.88,4.68-3.13,11.11-1,13.73C4.65,57.08,6.4,55.22,9.79,54.38ZM42.55,14.53A6.43,6.43,0,0,1,48,20.77c2.5-3.61,2.62-10.35-2-14.82a12.19,12.19,0,0,0-16.67-.18,12,12,0,0,0-2.23,15,6.43,6.43,0,0,1,5.49-6.26A37.8,37.8,0,0,1,31.44,10,5.84,5.84,0,0,1,34.3,3.91a5.85,5.85,0,0,1,6.59,0A5.89,5.89,0,0,1,43.72,10,38.62,38.62,0,0,1,42.55,14.53ZM29.73,22.09a5.34,5.34,0,0,1,0,.8,1.81,1.81,0,0,0,1,1.95,12.31,12.31,0,0,0,13.74,0,1.75,1.75,0,0,0,1-1.81,15.36,15.36,0,0,1,0-1.92,3.8,3.8,0,0,0-3.86-4c-2.65-.06-5.29-.06-7.94,0a3.82,3.82,0,0,0-3.89,4ZM14.78,56.87h-4a3.43,3.43,0,0,0-.56.07,3.71,3.71,0,0,0-3.31,3.78c0,.75,0,1.5,0,2.25a1.19,1.19,0,0,0,.57,1.12,12.31,12.31,0,0,0,13.93.43c.84-.54,1.38-1.11,1.19-2.18a5.35,5.35,0,0,1,0-1.2,3.88,3.88,0,0,0-4.18-4.28Zm53.5,4.86a13.13,13.13,0,0,0-.13-2,3.89,3.89,0,0,0-4-2.86c-1.36,0-2.73,0-4.09,0s-2.84,0-4.24.11a3.6,3.6,0,0,0-3.25,3.65c0,.75,0,1.5,0,2.24a1.29,1.29,0,0,0,.63,1.27,12.12,12.12,0,0,0,13.1.84C67.64,64.31,68.82,63.55,68.28,61.73ZM56.81,49.59A6.34,6.34,0,0,0,58,53a2.88,2.88,0,0,0,4.78.11,6.33,6.33,0,0,0,1.29-4,3.61,3.61,0,0,0-3.73-3.75C58.26,45.43,56.74,47.09,56.81,49.59ZM41.23,9.39a3.69,3.69,0,0,0-3.41-3.85A3.57,3.57,0,0,0,34,8.66a6.27,6.27,0,0,0,1.11,4.41,2.88,2.88,0,0,0,4.91.06A6.82,6.82,0,0,0,41.23,9.39ZM18.36,49.26a3.63,3.63,0,0,0-7.22-.78A6.3,6.3,0,0,0,12.28,53a2.89,2.89,0,0,0,4.92,0A6.53,6.53,0,0,0,18.36,49.26ZM9.52,27a2,2,0,0,0,2.06-1.89A2,2,0,0,0,9.64,23a2,2,0,0,0-.12,4Zm56.05,0a2,2,0,0,0,2-2,2,2,0,0,0-2-2,2,2,0,0,0-2,2A2,2,0,0,0,65.57,27Zm-26,46.49a2,2,0,1,0-4,0,2,2,0,0,0,4,0Zm0-32.34a2,2,0,1,0-4,0,2,2,0,1,0,4,0Z"/></g></g></svg>